<mxfile host="app.diagrams.net" modified="2021-05-18T09:09:40.173Z" agent="5.0 (X11; Linux x86_64) AppleWebKit/537.36 (KHTML, like Gecko) Chrome/90.0.4430.93 Safari/537.36" etag="4-84-BG7IN57H1KojJOd" version="14.6.13" type="github">
  <diagram id="lGBOM-aM7G6_iUPpv9Su" name="Page-1">
    <mxGraphModel dx="1876" dy="955" grid="1" gridSize="10" guides="1" tooltips="1" connect="1" arrows="1" fold="1" page="1" pageScale="1" pageWidth="827" pageHeight="1169" math="0" shadow="0">
      <root>
        <mxCell id="0" />
        <mxCell id="1" parent="0" />
        <mxCell id="YhcMtgBvw5Yq8l-BeSyp-1" value="" style="edgeStyle=orthogonalEdgeStyle;rounded=0;orthogonalLoop=1;jettySize=auto;html=1;" edge="1" parent="1" source="YhcMtgBvw5Yq8l-BeSyp-2" target="YhcMtgBvw5Yq8l-BeSyp-4">
          <mxGeometry relative="1" as="geometry" />
        </mxCell>
        <mxCell id="YhcMtgBvw5Yq8l-BeSyp-2" value="Services - TF/ DSD" style="rounded=1;whiteSpace=wrap;html=1;" vertex="1" parent="1">
          <mxGeometry x="20" y="120" width="120" height="60" as="geometry" />
        </mxCell>
        <mxCell id="YhcMtgBvw5Yq8l-BeSyp-3" value="" style="edgeStyle=orthogonalEdgeStyle;rounded=0;orthogonalLoop=1;jettySize=auto;html=1;" edge="1" parent="1" source="YhcMtgBvw5Yq8l-BeSyp-4" target="YhcMtgBvw5Yq8l-BeSyp-5">
          <mxGeometry relative="1" as="geometry" />
        </mxCell>
        <mxCell id="YhcMtgBvw5Yq8l-BeSyp-4" value="NSLDS - Solution DAO API&#39;s" style="rounded=1;whiteSpace=wrap;html=1;" vertex="1" parent="1">
          <mxGeometry x="210" y="120" width="120" height="60" as="geometry" />
        </mxCell>
        <mxCell id="YhcMtgBvw5Yq8l-BeSyp-5" value="&lt;b&gt;Solution Store Service&lt;/b&gt;" style="rounded=1;whiteSpace=wrap;html=1;fillColor=#dae8fc;strokeColor=#6c8ebf;" vertex="1" parent="1">
          <mxGeometry x="370" y="120" width="120" height="60" as="geometry" />
        </mxCell>
        <mxCell id="YhcMtgBvw5Yq8l-BeSyp-7" value="" style="endArrow=none;dashed=1;html=1;dashPattern=1 3;strokeWidth=2;" edge="1" parent="1">
          <mxGeometry width="50" height="50" relative="1" as="geometry">
            <mxPoint x="560" y="260" as="sourcePoint" />
            <mxPoint x="40" y="260" as="targetPoint" />
          </mxGeometry>
        </mxCell>
        <mxCell id="YhcMtgBvw5Yq8l-BeSyp-8" value="" style="shape=image;verticalLabelPosition=bottom;labelBackgroundColor=#ffffff;verticalAlign=top;aspect=fixed;imageAspect=0;image=data:image/png,iVBORw0KGgoAAAANSUhEUgAAAKUAAACnCAIAAAD/gQuGAAAgAElEQVR4Ae2deXgU17Xga96XNzPfm8zMs/M5niQvTrxviZ3ETswbLy82xjE2tjHYccwz3hfA4MSOHa/YZlW3kAQIEEiAEBKSEEIbkli0owXtG9qqeq9ea+vaF/6b+W5Vd6kltaAltHSj1lcfVFdXV9W9v3vOPffWOedCSvxvYdTA/1P/oIVR2HgplWjnLcuKLMuiJLOi7OclgpVwVvTRossvopRgowQLKZiJsRsJDtpIwUEJLj84GWNEkpP8vMSKkijJ6jUXKPuo482LEsEKFpxrdzK1Vrp42L+3h/i63beu3vfns+6ni5yPFaK/zXX88ogNSrdAaWZotwlKRsZsKQiUaob2mKH9ll9k2h7ItT9S4Hi22PnqWdfaBs+3Hb70PvLksL/OQrc7GQTncEbgJWmB8I8K3hjDD3q5oovk9hb87TPuuwpRKMcOHbJC+y3QThNkRKAEOLAZYMgAQ0YYHNS2xOCOfmTijkH9ufZvgvrb3SZw8UNWKMd+XyH6+hn3tmbs1BDZ72X8vHgNs59P3t0u/84m7OF8B7RfFdMkBErS4GlEx0JNRKCZ2kYbhHoj0IDUWycjQFvsNy8+jh7pIga8rCRfa+jniLcsK4IoY4w4iPPH+vDXSp1QCgJtGoG2qXUdIchxnICUR7ipzSjCuxgQyICAB9syAu0xv1PhLByihjAWZ0VBjHm1Pxe8HaRQjtDftuK/y3eAnlVTzobJ5VXnqmlvXZknafKn6uEsG3TUBmXbgebPtUN5dijfATZt/5gdfJVpA9tBtV/YbQLKQ1fpgX5h8mfQGofWlWwfgfaaHz+JbrrgqzLTToqXYlbwZ5E3I4hNNv+757z/lIdCe81AFg3wpDpZkyq9KSQj/3zQuqjA8XKla02d5+t2n7EHzxrEi2Cizkq1O/09HnrIS48QYLMQjI1gUJJFSdZCMBaCQXBmhKAveuguN92CUjVWqggmjgzgu3rxL1t9H9R5X6l0PZaPQgcswNAzBnv3yZqg1v60JpJmviHf8UmDrwOlY1HXzwpvQVKKBolbcu3QTlU3aubVRHVqVL9NUDVnEnLvUfs7le6j/WSDlRzx+R0062M4SuBYgRdlXpZ4ZSY2UeYZkacEzsdwKMWO4EyVhUzvwt4qd15/0Ap6mW2Tt0sAXu1BEsGI4ME8R/kIFVv23UzylmTZ5Rezu4kbD1uhrTDoBcMwDtaXqpwfzndsb8ZabDTFcorCj9lmgm5ETSR4X0nmvX623kJuOe+5/ZgD2G4p6uggYCVMKI4RhrbBd+TYcgdxLy2KsaDkZ4y3Bed3dxE359hHJSAUtqbMkxHokPWuQvRv9Z7KYQIlGcAjWN0RsZntRhB8GEnmUZItHSHW13iuO+4AY/1ktfs3jqUeHCvel2vf24PbCF6So9qmnwHeFCdm9xM/yLOD7nliD63ZugfML1W6D/fhrajfx7BRgTbipuOh2QsOf3o3vqLUBQyRBG0OYBx4GEpG7j3uKBkgo7lfv1reBCu+VO6Ekk2qWIdUgdbwt4z8ItOa2YObcZoSOFmcmT54XpqLJPMkz5lJOrMHAxM1EzssTYftQF475UIpLjqpT583I0jn7RTo5LaFWN2aRQPMGdPjJxxNVlKUgxo7YnmaF5xTuKmq8xut1F3HHNAuE7BRjCE1kKjOBh601lnoKOzRp8nby4ibLvjUEW2oTKuK7oDltUpnk5kSBdUEu2YwjyuIwgsiX22mVla4wDR+wljkBhjaa07rIaPNep8Ob4qX1tV4wFgrtF0bwMfXz7rqrBTDc1MQl3H1GGsfKY6rsZIvVbqAoIeaLwYYSjZtqPFwQhRNyE+H99qzblCwUNgJMJRmbnRQfoGbqYFybLUYSuDKYAKY8aHI1Wn5DTWe6JHyqfEWJHlzMwYmlvWxlhHMPPzltJvkr2ntHZnWcRDMIwUO1XQNqndQP6a0HjJK+vIp8JZl5eSwHwxDQ2HvNG1u9RHsAlLgl1c8tMB93eCBUtUBi1ZRal/e4mSiwWKfAu8hjP/hMbXxasVQldXBHpwV47DHjDM5nktpx8YgT4BvP2aPhrdrkfIWJXlXBzY69lBfIWT14WC4FZmuW1CncTy3pdkH7QjqQiMCbYVz+uZ/KiZS3j5W/P0JZ8AYAe854NXn3H4hLtmTNnda4O7KVWeX9e7viJ0R5nm2NVLefT4WvDwIaHIYSrc0OqgFJbLTKGybkxq1dRIRKMXUis5zLx4p75wBfHQezQA/Ueqk48J9xY5M4ZeccIyO0JKRzG58fq22SHkntflCp5C2Nnmn0d4X3E8UfncbFlpvm5qw2OC9qcE7Kt9JyLbmOO9Je+7RZq3wB3tC9KIR+Xu9b37fkkcq39n9Ic+diKyodAlxfR6BPv+kxj0q30nI9pYY0eddHhY8t/a23whD2bZhjB5tyFcs+YI8gRY48CpF9/NJMuVfnOchWaTy7fRzPzpsG+WdiOzsxqX44Psy7VjhD3dgoBPUXWL2mEcwNjb67xYbta7Oo74mUecQjMh/PWwbIlSHpMuUeaF+JUt8l9sPYpr0wXcC/OcSp8/PcuJ8vi6LVL6PdeCnzSRw4NVfixnguwtQMx5HPt5wkyV+2EcDZ3tdstWdCw6qyUbNb9BCpLxTL2BVJuKjWs9oGdTXvTcdd/S7aeBzuFBFeXzBFX6EoJ8sRNW55+B8agL8XZPXitObm7HYsM8T6r0batwEw4JYL11Haa48R23tKBVHDsArfJ+bgTIsQCp04TbAi46jHpo92IGtqfLGBu/va73QQWuH0z+M0cBnTS+M5tSx25Q7iJP8AnV2UCQQDoHz3KFeHPh4jZOHTFub0+/jOCgR+aQ2Rsbfm2q9UAL87lk3JXAtDhrSbfXAjDoCbR9ZXu6qNpMUt+BeonASX2Uhny1zqjo86OmgScIh6zkziXP8E0UolADHGG8oCTnQhYkyX22lrjtqGx1ZBqjD0H7L6jPuThezINS76rJ4wUG9ftYFujktrlgXgG0wdNTW5PCzAm9swzQ/kVjjbYShHUhxPy4qvAlnFuU5RidZA3H3autOMa0qcw37VDvumjTlVJdkB8G8WeECvZvqqzmqxlXf+8UlqAlnZIUvGMBV3wcQYh5rvLXGm4wUjRCcxCmX+I0NHuCDrbudaydoPtgG+OViZ7Od8jKcEMuRBqEWOCfxPoY7b6deLnaCtq7POepibYShXaavG7wUx4ky32ghQAi0Zu7EKm8j8Ebd24UzIs/L/GkT+ZsT6vAj1DVTK7/qxvpwHvpdK3bGRDqpWB2sSzLvpNgKE/l9s+/+PEcglFxv3JpuAw7IyK0FjjMIoSg8zvH7uvBR2ImxK9/aMGy36b1zHi/NKgoIrdvVjf9zll1t7yEGi67kjcD//n/l29+schcPER6SAW7LWnBeFA7cg1GDisR7abZyiHi72n1DvgPMl2lBQ6HDE2CXAYefn+fY93bhbj+jXBLMOLPqnBs0i9AzY1W+A7pLnRk+aG2yUMolQVR4O8WmdWHQATNQdPpLAl0INJ1vAP65UKpp+UnHgTZsxMdyOvh57+mDmAVJHvH5MzqwpwtR0PWCnAAhkd96ibTWvA1ou6xe3M2wwJvvEt/hpEDuiYl9XGzz1qknmzY2eu0kKyq8cknwMeyhdgzYq3ryndAK0ve1uFEDDB2wrCxCM7rxRjtlJRkPzYIYf4mfg5cxssSzEkgp4GU4C8XUWamMDjW3TJraZMf1zfqT6+yTTdAh6+EuDMTTXBJ4mXf62S/BWwZV4vXz9Z1rgbfWxhPgX2TZd3ThJpwBnC4JFMMc7ccfKXWCUEotcUqoZtOrQE/xAIJsESjVdP8x+4pKkChtexeWN0TUWKlW1D/oox0kQ3EcJ/GcxIvS1Ib42q/8AoeSIM9Hu9NfZaGODuLGDt/6856XKl335TrUxF/BrF9hH1UrqdpJQ4etfyhz5fbjILb5kqBcEhCcSenAQLoYrSB6AUN3rhHeWpFAq0d+lmtPbvfZCdCHKQpPcVwr6k/rIV88pY5Qt4+A6gitgtB99QpADQayuMCAgZYlLRtk5Ln5pGNxmfPVStdfq9zfN3qT23z72rF97VhmN36kB8/uDWxHe/D0DnxfO2a44P36vHdDjeeN064XTjlvKUShfDWPzyErtM8CWqF+o9Chc+gj6UXTEv3sNa8odaZ1421OPysJyiVggphxxtDqA2mDgD6bvHSxba9NrBTQ/INBZWnmz2s8ZhyYcsolQVIEkudMGF00RL0BgsURaOvIqBdf2EvpB3XlGUiqoaoBbc4ySTUFkk3AIEhWc2+kqP/qR/SpzYkX0duWfqNxO7ri2TIC7UDerHCVIYSFZEkejLI0mXaS7Jc1HuDRECj72JnUcRe8BnmHllDt/F4qdtbbKJefZQVeVtkrClDILXbq0yoPlGkFFq8WoKRNWeiZUibTqKG3mKn9AHu1sWqJ95IQaK/pxiz7xgZfO+rXWq2msRiRdzFsldX/kjb+Do19v+LzXFP6PGxpE2Bo68i/Zdr+2uDNH8IHfDQIUQiCF2XehNOlI8TmZt8rla6fFTigLFsgh2ZoorQrymLYW4c9qF9Kv75R6zXM0GHbT06g/1npSmjxnRkm7QQrSaL2qLLE+zmux0OfHCbW1HrUieRwmUvC3jH04LXPWyutNmbdaYKybStPOY1tvhY7BabnNPCqvcMKYKTb76XrrFTeIL6j3be2wbOi0rWowPE/D9vAnKXadEBHsA1kRQp0vXq+Ns0kDvwb/FY7TTt/6wj4bQIM7THfcMj6WL5jZYVr/XlPcocv/yJeb6X63bSPYUEsHHgqVWMrPMmyFxzUtibvsjInGGJpj3H5TjoU8Lj9hcJbs2yBbKnmTBKItIBSTUsK0Jxu3IwzkhjoEdWKBppfknlWCmRJc/pZC8kOEkynjz9tIY9dxNO6sLROLKHJ+1Wtd8NZ16pSNHR7q9y5/ozr21rP93XelHbfwR48d4CstpKdPnqYYKwk6/QHM7tJnKwEOxqN8SVe4NkRnz+rHf9jkRMA1rob7eGvspdZQLzHtXTtowEGWW+2jEBp5ucK0M2NvnKE7HL7bRSrjcJpkeNDXSKBJggK3+gOGA5daQvIqzYTLktgGphWs+65GdZOsp0ufylMbG7yLjuOAsZbVC0yccoobCkiP7jQeYfWlN6h7jRBe8235dhfqnS9V+Pe3uY71IsfuYiXI0Szg+rz0IMeehijUYr1MSzFgeyL6vAauFqIEidKYIxOCxzFcT6GRSkWwZkBL93jppsdVAlCHrqIp/fjm1qxt6o9Kytcd+fYgYGdAt7fB6YFr1KIQws1bj/OO/xYXI0/BQM2bVisAUg1AT+hLDUFbo4NynfcWOC46aTjnmL0nmL018Xo70rR35agv1E/3lqE3lKIXl+gZtDNsQd+lW4JvL1Qp7vBxbUZtNkDHOcdHvC4ehn3UTeq9SH49He0mfArDZTHPcBMfYzL93Twz1Ttz/114rzjvOc43CRS/3PNX3Fh4ZlxBRCX74XVgOK847zj+nyejOcZ194TLxhD8p3QBOINFpY4TgR2lUdiiPfeTjWU+SoLvOB//k0jNr/rH0Rqn1eYSTDjOGdTUddky0g2ZfcSc9xhj7tdpLytJK964167nesctLBUU58nRvKvURz3coWaBnsO6uWavIUBWZRnZwVhnMDN8cdI5VuW+LwhIrB66zXJY7YLtWWk2UYpUozwFiXJR3OLSpxXcMGc7Vqb9+sHHB80Zzc14iLUtWbit5rFY0CWFTgkmSdYfn4ToUcq390u4LbXjvpBIMGCsto0hNoaVCH+0f+Sh95biC4rcS4rc75c7nyuxPlsKfpkEXpjgQMsZpplA7luUtUg4QQYOmw14QwncWaciY18PXndOCsAd+vCYSIQODLvojarD6C5wat+03ccta+scH/XiuUMULVWuhVlhnHO5RcwRiA5geJEdQP7OCtgtOAg+YtetsnGlMH+lA5s/XlvpZkSRR7j2FPDVGzId0oL1mgGCZEl+VpHbgC5yqFE5OnjaGYPPoDxblqkeEmQZHnqY2dRkllRAoxlmeLFZjsdG/lbEuq9q8+5BTWQR5T5zD48ECw5q0I2ZxcP9LsItBO5Icee0YY7qXlOjDdLdnuk/TfI15NuabST2vJDgsgXDBDQEeu1MMkKvGUQ6JBtbY33DBJj6/1OtVlEylt7/728GMX0pWkUvt3pB+tuXTFuas7EdBo3MsBQpm1LG97tYudX006V3PTOnxpvKAFOavYBj/xgkD7Jc0f7cDUrbKy9TdkGQylIWifm9IvCQkCtNpAp8k4EtkxaFzZmTSIQI8k+V+wEgq5Fzk1DzubsJ1pXnYSsKHc5iGuzk76M6E+dtxrnmNiO4eOWdVb4MyZyaZkzIOvROUbXoj6z7Vl9BBNNyzxehtDMfjUt3moKoo9qPRQ7fk1BkuXOmsl3ajwgq8dk+RHmTJTH3cgAQymmv9Z5YG+ULtY8s2jDXm1avIPhzovyHCDlUkh3rvXrtMiZCWZ3uw9Mxm0Jl8tlHIk5+KhGCp4YomhBClsRC+TgdHlrhAwItAPO6cXxsJlT1XbQaCVXnEQDcd6BIO+5fakKOmwEOmhtc9ILBOplinl1vDVBT0JeOOU8a6ZApqWJmxrsieD00R781UoXyHuRFpLVara7efX6jxU6LDh/mVpYOF9dNW8t1tcAclK9ftbV6qAkLYR6Ing11Q6CM2fNpLEDe/WsCyyQkRAM5p7xYEztwZKQ96rcTioOO9CkZ4K3pttBUD+Yj3yqCB3wXiFzqiTzfoFz+tluH33sIv5JlfvuI1YQab0NDvT3M4LfAG+o9hIcmPheOBJ8+ZLOHG/d5lJF9qViZ7XV72VAdG4YJR96MJjljmLZfg9T0I1/VuVZWuAAibx2a/l3wBLjwcF9MCvQlUMGkRdLXNGwJO/lAczxt7PAO2DKgem2u3Md/2j2VqiZU7WJ9wjZSyLH8JzXz/a6/dVmMrcPT7rg++a89+0q9xMVzntL0JtOOgLhvvkOKBdk6wK5tvLtP8izax/XVHlpfp6dSeaYZSS3mzXeOnUDSJnyf/Lt62vdlcMESFCnJ9AMlfKp7HMSyOzmY1gXxaIkayGYcZud5HgxrsPDNIBZ5q137Xrmln3mN8qcBf0gbQsYuGvbVGBfQUOASwmKEocdBraiKHPCW+/aA8a8apcZ4esPWjfWe4pGiD6ccflZnAed/dWnTb0E8mjF/8LXwJzz1tlrcy/aeGwbfP1h69JS9KNGj6HdV4aQ9TaQqsVJcSTPMmEncyZRCXHY4TkHj84fbx28rvO1hCoGGLj5HQCpWv4pD739pOO1CtdXDd6Njd6kCyBXWq2Fanf6+z30gJcewUDn7fYHNjEu2UGuk/0fNbxD8WszoKMjruD8q5a4LcUEVtDQ/k0FyZzAhN0e8yOFKMbENflkoAPHo5J3KPtI9o3gxdexQSo+rXIF2vNgr0XCb6rnGJGnSp1eJj7aviLuubfPp8oykvNTTFUW/5XLGj/jWpBvA7KqzDW/Tvwx1JBivP9WLbtr1Vd8NppRjPM2wBsbvLNRL9fqNSPlDeINppTLP5J+9yrPMSLQfvMgtuB8TK+mLUbK23Ah+vL1GODV59x+fkH7o02VfaS8M7rx6JJvdR2KgqG4WT414pHybkZpwHu23c0i1/BGGDrmMBNxR6XZ4Y36RZB+PIp4I+9Ue6QFEwc0NaqTnx2pfDMi/36tJ4qiQZORajM1ebni34SvgUh5KxJfYyUDrsSRa91ZOtOIQPvMGDNembNgzaP43+VqIFLeOCtQHPdWtTsqVHoC/H6Fe1yxcIF4D0lUlLi5Pq5ixnyMlHeNmdTWygTLcM2Is/DViP5WuHRwTKJCXCBehDdBpTdlo8Vjyhf/MLYGIuV9rAPXlnaHMQYstjqPyFXHGNX9LVAURmT+PLIZKr8NOnULdPbX1b6msWWMfxqtgUh5G5uxggFCcy1tc/rVjjy4ftzVSOo0fmtAoHTLaAkUJctbBpXcBHhryBuXdNID8RiD0CrS9yPlvaXO+1QpSqrJPCQZ2G4/AEvYz0dOhwT4tVKnXgCYtkBnfh2ArSEvuwXqetMn4Po58R29BiLlDebPd5tOjhCa/6gsc11u/wul6DxMuiXAe9uwYAGkh3s/hMpuHsO7/Dao7JZ9jtzgOfH/R2sgUt4gX882+PZsm1tP66DwBMvt7sQDC8NNQzNP7ycGuAwOGGvniXbo9F3jYQOtfitU/ZC6gvNoUeN7U/c/3wa/XOqkOG7U6V/h213+fzkWXN1+tifg1BfeAzhwXZJkae3QdqjizjC8y2+Div9tjzUnznhcDUxFvrX1LLbBqyvdKMmEIvfS7L52DMoOUp+e4EbyKyMC7TSZScDbxXugtuXAJte67Yn/Nixmpfjb0jHEp85bpfJ8uSsQEBTi9z+EMSkdGLDjQHbZoBNxJBQjP8eIQAfMDgrwbiDaoZqHLse78o4Oqm9McRf8h2nxVhMS/jrP4cBB0uRRQZd4QeRdDJt3Eb8l0wpMOcNMG/BG5Fc5di8N/MwPOPOh8ttBVz1RsgOG+i+TrUeiH3FX/anC1C/T/vHy/i/+cuDLVw99+9bBjW+cSP2qq66cIkenlTCXvaH0SPqXf9n/Bdiytq3J+O6tfZ+uyDFu6KgrFfiI5pKnxVsTxwQY2m06YyFpIaQ718RdAQtsn7eQK4rV5bS1BIxa2srIRTnsmUb4gVy7F8QVyBvRg1DpLyeFDZDf/vzAZ9HPW1GUwY663Z+8mLx+6fGUfyiyRBLu0zk7je8+tv+LV0Z6miVpdJI4P/nT5PVLd3+8fLCjjmPZvraa3R+/kPjeH3OTPo4E+VXwTkSA0k5CPqjxdrppURwj6NrMjChwQ146sQ27pxiFDtlANj59leewOK940ADfn2dX40jkjc70K/A+deudfWtigvdId9Pez/4c4B184uK075PWPnXgy1WWoa7gMaU0favOW1EUnmNPH9uVvO4p47uPdTdW6qdNtnN1vLV8PUYEyrQltPhAbPdY9a6reorj2pz+IxfxN865/3umLZC6A8yMTrGbN8APn3D42MjkO4S3KIrD/X2o1aooSk9He03FKdRmlWWZ5/nO9tbq8jLUBr7S/7Tj58pKGqrOhipVURQH+3rtFrPA8+3NjfXnTns9Y97cYD5vY01V/bkzw/19oijyPC8G1yzRnuFcWcm58jLMN8bNMixv+0hfyodPJ697KnPL+/qDjeMtCsL50swda5/c8cHimsJ0/bTJdq6atyaRRhjk2zhoze7F/cL4JHw6dUUBaVtcfrbd5c/oxlcWqdp+q5qyR1sVIgL5DvJW9qA5l+u8y2+DKu58a+g7YMk77BvXr1n8sxuLMw6lJmz+at37Kx743ZtLFns97rQk49pXV6z8/X1L7/kJ5vPp1ZS0aWNOxv6Bnu6kTRtfuuf+/q5ORVH6uzv/8cFbS277cXHOoa8//OBvb616+q7bt6zf4KcCb+JHBvpXL3l4ZODiUF/vRy+8+P7y595b/uxe41aWBcsSpe9MOrQ7eaCnOyMlaemd9zTWVOm3C8ubIrCsrWtTNjxjeOcRGxwwPMfxZmmq5MCmHeueMrzzCGoa1C842c4M8dapJ8C3Z9lPDuMuP8sLEzS8bswHI/15get3+493429XuKB0C7QLAVuSuk2MGgRHQP/tU+21arwJqnrgcvZ52c2HbIWKonAsazUhz/7u3i/XvWMxmxRFaaqtXva7e/7+7ur+bgCyp6P98Z/dmJGSpCiKKIoJX33xyduv61X2t9dXvfHIoxYE5li2v7vzyXtu/kq9jiiKxw8fePz2nyODA4qi4Dj20TPPp2z8RvthRWHhov/2v1sa6gSelyQpa9/uvzz+kMAH3tlv/fSTFQ882N/Voc3zh+VNU0R+ymcpHz6944PFXecrtMsGeb/QWVfitpvKjyQmrV2StXWNDe7VH/gyOzPKO0AdgbaP/PyI7asWb42VDCTw0ElP3AmyB7Y9xTY7qMxufGOjd9Vp13MlzlsLHCBl2yErtN8C7QFhoXcdC9jnXt4Hta+4HO/Tdw7QsFZ4j9P54oP3F2Yc0OrXakJWP/pY1t5U7Vvc633+wXu+/ehDRVGG+/se/NGNlUWgoWh/vR1t//fG60pyjkqSZEWQZ35zR3F2hvZVS0Pdkptv7brQoijKUH/fKw/8IT/jgPbVYF/vf/zrDVobclgti3/+k8N7dgauqCjDF/ufuOsXmbt2aC0gLG/WTxXt26jxbio/pv1W473zo+eO7/ys/PC2vOS/pn3+SkVW4mBHnaZF9FuE3ZkF3rqsG2Fov/nOE46EFl+fxw9SKk8le4cggiQtHpodJphW1F9jpU7DZMEAfnIAD+bElNfBO6Cyyedbzj+rz7d4Xc6Vix4o2L/virwLj2Y+dN0Pm+qq9fpyOexP3Xvznk0bOY4dx7ujpWnpHXdrvG1m0xuP/HHrp59oPxzs6/39j35ceOyooij1504/8uPrTuZm69f0uV1/+eOi7Z9toGngYhuWN00RBbs+D8h3Q7n226B8A/tckSXc5y49bExau2T3x8vrig4p8qglr98rdGfWeIdST0SgVNONWfb0VsxBXFXaFlniRYXX33WaWVv4+XN1PrXcW6MX1eN2vfzwHybj7XO7n3/wbk2+s9JSH/7p/6iuPKX/1utyvfTQ71M+/5xlmcvwFkUxO23fkjtv1PqIjJSkt5cvY2iQxPNsafEfb/7XrLQ9+jUxn++9ZUs3r1/r94O+PyxvP+7L3PS+1n+7UJv22zG8FUWWZaS39cBX/5my4ZnUj1/wOMz6LcLuzDJvjbr+L0inNwIdsHxz3tvo8KMk4+M4RuSmnLMlJNB7ryVn9OW3PvFSctMdnaM2raIol+eNeUZ5nz979rGfXpf0/Td6q3KjjpWPPFiSmyXL8mV4K4pC4Pimjz9K3pooR5UAAAgdSURBVPJdyuZv8w+na7AVRent7Fh8y40fv7FKFAMZCXxez9vLlhxNTRJU6z0sb6/TnLx+afL6pXnJn+rwxvFWFMU23Jux8Y2UDc/s+fsKtw3Rzwy7M7e89Xw9WtqWA5YnC9F1dZ6MbuzkCNHh8jtIlpfEUXt+YmevHQnhrVwSH+7ZMEarn7oFqn+ijx4KLTDQ5w89UJAWXp8TOP7C7+/V5NtPEG89vvj5+35lRQJ9f3fbhdWP/zusGmVWBH76vtuKjgb671B9Tvv92z/528ncbJsJcTnsbpfT7XJqgBma/vjNV5647abu9lbtqeDBgXeXP9/X2aF9nMhbFMWzx1MT1yw+/P3bTutoWUoObA4df0ui2NVwavcnLyatXZKb/De9hYWWPXR/znnrsh5gr865JoO3INBh6w35jn8vc79y2p3Y5js1SLShfgfJBNZSCJp1wAiQx+TtMHN2qPM1MPeiza3WP1GC1YTmcqFIoqq85JGfXLf1ow9Rq4Wh6YqTJ5b9+o7P33vTgsAswzTX1y65+6dvPPukaWRYkqT+7q63nnrq41WrmupqmutqvlrzTnVRkSgKFEmU5OUsuuGHSV9/6rTbaL8/e3/qoz+7fl/idsznxXH8y/feXv7be1Y/+h9vPLnk7SV/enfJnza/v9blRBVFMcMjHzz//Lplz9efO91cV/PdhrVFOTmasSaJYkdtccpHzyateTLjm9etQz3m/o6KrB27P15emrHVNtwrBbWCKAiZW95PWvNkyod/qjuZgZqHOmuKM75ZnbzuTyf3fO00jzaLUMah+/PKewx7fYVGNYolCaRiBXladiEgq+Yh6yvF6IYz7m9qPCkXsFrgPDn6J8uyjXUs6l0PFHvjs330UChsRVG8HvdQX29bfW1Pe6t5ZJgmycHeno7Ghq7WFqsJoUhy+GJ/e2N9Z0sjarVqEulxojWnTh0/cqj2TKXbYdcOej3ugZ7utvra3o52p91GkeTF7s628+Cjw2KRZakw+0hd5alTBfnFuTk5+9P2Jmz76+pVqVvBHICiKJjH01xTVZh95HTJSZsJ4YNjs+7Gysay7Krj+6qO76su2N9Ufqz17ImuhnKP3czRfr1bwVz2jtqSmhMHtDPrizNrCtMbSo601xS5bMOsageMVsoke1HDO5R92H19mc6tMJRhmRjg7+Vx6NyvqrDGSUo6u4dlWW6qq8nJ2D9Oo6I26x7DVr3bnt2HiODqscNbbwTqFOxIuDBgqGm5jXVEUOqZP4VlGeOXn3+w7JmO5iaf28UwNOHzDfX1FuXltDWdn/n7TfeKMchbXSOpcCBMMNFdbW/rEyzTrZBp/k4UxfaG6k9WrXxtyaOrn166dsVLn73zZnpyUuv5+mlecXZ+Fpu8DfC75a6JFYJyDk4GM9Xz8ieJIoHj/d0dnRdaOi+0mIaHCDzqfGRjk3ciAu0x4xPix+YFc2zdNGZ5J5tOw2FUemzV/tw/bczyTkReqx7zCnnu6y4W7xgp76jL12OEoVx7fNWhqba5SHkntfmiKNhfm5vbaSoYovTpiKmWfGGeHynv7P4oy9ejusK9ecYVz880pYYbKe9uLwuiA6fqbqZPkszGDlgZxdTrmbcB2JQqOkpOjpS3mxZvPWqPLt5GsC7GN+dHnc6ipE6j+TEi5c2L0hfNPuBNHF0iDjzaVHf0aK7kKHq2SHkritLmZKDD1ujinQhE/M8VLj7EIz+Kajf6HmUKvDlBSmjBoB1T9BifjZ573DVTTDXmeKLFiBrXFHgriuLnpUX58xHjPw7wuI9G+OESJxZf3yAC4lPjrSiKICkBwy16OnI1SDjnIiWF+jlFUPgFeMqUeQNnSox99AQKgsHmJX/LOOHWPhpgKMtuwiOKkVyAmPUiT4e3JMsXfdwLpa6ZD/cNyzLCgwb4lXAvSfWixnemkM9jXGXJsoKz0vdNmBrkHR0WnBEEnx7pjLpXzuOqbn4/Tke+Q5/4DOKH0tVBWpTo9l2mWrM/3pGHMgrdv1resqwMYvyrVW6wzl9CFMzGGJGbc+w9Xi5uuoVi1vevlrd2IUYQz5joFytcwHd4fqmrUaVPF7l87BUiqfQqWFA7M8NbqzKKk5pRZkWxc547dTVs+NXSMA5uCwpt2MLOJG/9Bn0u9rmTKAgYCGRumXoehwht8suctg1+97Sb5OJSrmMBO7PCGyTDk+R+D7OlBbujwAFCt41q3NAcT9EY4HfPeV3+McFHY0q/8D7MFm+9Jl1+odZKb7rge6IQBWlbto7M3ajdCEPJyOozHiIu5UEes85bUWOUeVHysaKJELL6CKDqk8F7rUA3P6tCr/po3HLMIcT1uop8LngH29bo/xjD11moL6o99x1zQKlmKMkEJZvAm1aAR9tmdA4HpEw3t7poYcGvZzQ/vHXynCBZMf4cQqd3EO+c89x/EoWOqdla9prB/HwCHNiAn0VwcK+OuMC3kWzayWDqDWTJT+vGF7i/2zzz1sHLsiJKMskJCM61O5lKhE7rp7a0Yx82eFZWuJ4oRG89av8v6RYo1aS+p1ENfi1iVG8T43ZAYj/1NKM6TNhtgvabn8h3VI4s6CiFaOGtgw/dkWSZFSWKl3BWdNMiSgkWUkAIodtDn7dR58xk2TBRMEgeH6DGbYVD4KtKhGi2U/0+zkSAH6KU4KbFBT5Ci2reoezj+zNSA3HeM1KNMXOROO+YQTUjDxrnPSPVGDMXifOOGVQz8qBx3jNSjTFzkTjvmEE1Iw8a5z0j1RgzF4nzjhlUM/KgGu//D9IDlZpkoW5PAAAAAElFTkSuQmCC;" vertex="1" parent="1">
          <mxGeometry x="339.99999999999994" y="310" width="88.8" height="89.88" as="geometry" />
        </mxCell>
        <mxCell id="YhcMtgBvw5Yq8l-BeSyp-19" value="" style="edgeStyle=orthogonalEdgeStyle;rounded=0;orthogonalLoop=1;jettySize=auto;html=1;exitX=0.56;exitY=1.067;exitDx=0;exitDy=0;exitPerimeter=0;" edge="1" parent="1" source="YhcMtgBvw5Yq8l-BeSyp-9" target="YhcMtgBvw5Yq8l-BeSyp-18">
          <mxGeometry relative="1" as="geometry" />
        </mxCell>
        <mxCell id="YhcMtgBvw5Yq8l-BeSyp-9" value="" style="aspect=fixed;html=1;points=[];align=center;image;fontSize=12;image=img/lib/mscae/Cache_Redis_Product.svg;" vertex="1" parent="1">
          <mxGeometry x="440" y="330" width="71.42" height="60" as="geometry" />
        </mxCell>
        <mxCell id="YhcMtgBvw5Yq8l-BeSyp-21" value="" style="edgeStyle=orthogonalEdgeStyle;rounded=0;orthogonalLoop=1;jettySize=auto;html=1;entryX=0;entryY=0.5;entryDx=0;entryDy=0;" edge="1" parent="1" source="YhcMtgBvw5Yq8l-BeSyp-18" target="YhcMtgBvw5Yq8l-BeSyp-26">
          <mxGeometry relative="1" as="geometry">
            <mxPoint x="918" y="210" as="targetPoint" />
          </mxGeometry>
        </mxCell>
        <mxCell id="YhcMtgBvw5Yq8l-BeSyp-18" value="&lt;h2 class=&quot;title&quot; style=&quot;box-sizing: border-box ; margin: 0px 0px 0px 1rem ; letter-spacing: -0.01em ; line-height: 1.1 ; font-family: , sans-serif ; background-color: rgb(255 , 255 , 255)&quot;&gt;&lt;br&gt;&lt;/h2&gt;" style="rounded=1;whiteSpace=wrap;html=1;strokeWidth=2;fillWeight=4;hachureGap=8;hachureAngle=45;fillColor=#dae8fc;sketch=1;strokeColor=#6c8ebf;align=left;" vertex="1" parent="1">
          <mxGeometry x="415" y="470" width="130" height="65" as="geometry" />
        </mxCell>
        <mxCell id="YhcMtgBvw5Yq8l-BeSyp-32" value="" style="edgeStyle=orthogonalEdgeStyle;rounded=0;orthogonalLoop=1;jettySize=auto;html=1;entryX=0;entryY=0.5;entryDx=0;entryDy=0;" edge="1" parent="1" source="YhcMtgBvw5Yq8l-BeSyp-26" target="YhcMtgBvw5Yq8l-BeSyp-31">
          <mxGeometry relative="1" as="geometry">
            <mxPoint x="1110" y="210" as="targetPoint" />
          </mxGeometry>
        </mxCell>
        <mxCell id="YhcMtgBvw5Yq8l-BeSyp-26" value="" style="shape=image;verticalLabelPosition=bottom;labelBackgroundColor=#ffffff;verticalAlign=top;aspect=fixed;imageAspect=0;image=data:image/png,iVBORw0KGgoAAAANSUhEUgAAAMYAAABcCAIAAAC6BF0vAAAgAElEQVR4Ae19d1xUx/r+2V1YinRsiJVYohBREWvEGiEqGEUJAaMSvxbsUbBdMRKsYTEkGsVYrgQ1iWvBiBo1oQgWQERAei8CC2w9u8u/v8/Ph7ycLNjuveZyw54/YPbsnDkz7zzz9pllmttcWq1WrVZrNBoU6uvrs7Oz4+Pjr1y5EhMT88MPP1y5ciUhIeHp06cSiQTV8LdNS/obnZECjM6gASOFQqFUKmtra5OTk0Ui0Zw5c2xtbRnO1bVr148++ujrr79OSUmRSCQqlYplWZ2m9B87JwVeCKmnT5+KRCJXV1cCEo/H4/P5PM7FMMzw4cOPHz9eXFysVCo7JwX1o9ahQDuQUigUaWlpn332GQGIz+cLBAKGYVAQPL8MDAxws2fPnlu2bMnNzVWr1Tqt6z92Qgq0QEr7x8WybHp6+qeffsowDI/HA27wF3ji8XjgW3w+38DAgP/86tmz5+bNmwsKCjTPL61W2wlJqR8yKNAKKfXzKz8/f9WqVcATFzTgTPgL7mX4/AKjYhjGzs5u165d1dXVLMtqNBo9fTstBf4EKZlMdurUqZ49e4IhATSGhoZ8Pr9Lly6Ojo7jxo1zdXUdPHiwubk5gEWQYhjmvffeO3fuHKzFTktQ/cD/BKm8vDwfHx8ejycQCEjqmZiYDBw4cMmSJWKxOC0tLSUlJTo6esmSJQMGDCCFnVT4RYsWVVVV6cnamSnQAqnm5maVShUXF2dnZ0dA4fP5hoaGI0aMiIqKkkgkRCatVltdXX3o0CGgChoVUOXq6hobG0s19YVOSIFWSNXX10dERECLIq7Tt29fkUjU1NTEdTtpNBqWZaurq/fs2WNpaQkI4hEbG5uwsDC9LtUJkURDboVUSUlJYGAgpB7wIRAI3N3d8/Pz1Wq1DqSUSiXLssnJydOnT8cjAoGAz+czDLN8+XKpVEov0Bc6GwVaIZWbm7tgwQIupCwtLVevXi2VSlXPLyINuJRarS4rK9u4cSOPx+Naf35+fhUVFVRZX+hsFGiFVE5OjpeXFxdStra227Ztg3OB68bUaDQw66qrq7dv305cCkqVt7d3fn5+Z6OjfrxEgVZIteVSFhYWK1eulEqlQBU9o9FoENQrKSlZt24dKV6QfX5+fpWVlVRZX+hsFGiFVGlp6dq1a7m6tkAgmDFjRlZWFiQdkQYfWZZNTEycOnUqNHqBQGBgYMDj8VauXKlQKKiyvtDZKNAKqfr6epFIRCwHhd69e+/duxdJLBRsQaG6unr37t3GxsYQfAjaWFhY7Nq1q10iarVaagHhH51qf8SE/vRfnzajQ6WO/7EFUlqtVqlUXr9+vUePHlxU8Xi8QYMGffvttwUFBTKZjGVZtVotlUqzs7MPHDgwePBgqoxYzaRJk27fvt3usIm3QQ+TSqWVlZVPnjxJTk5OTEy8d+9eTk7Os2fPFAoFt6ZKpeKqce22rL/ZoSjQAinMYlFRkZ+fH6EEDnQej9enT5/Vq1efOHEiLi4uNjb22LFjS5Ys6devH2IyqM/j8SwsLNatW1dbW9vuCOGJUKvVEokkNTU1KioqODjYz89vxowZkydP9vDwCAgICAkJiY6OfvLkCTxhLMvqIdUuMTvyzVYupVarZTLZDz/80KdPH6CEIn2Iz9jY2Dg5Ob377rvW1tYMwwgEAqFQaGBgQN7RMWPGXL16FQKOxkwyTqPRyOXyx48ff/PNN15eXjY2NvQggZJhmF69evn7+585c6a4uJh9fukdp0TM/4nCnyCl0WhKSkq2bdtmY2MDFgVUwYdJ3Iv0cUNDQ6hQPB6vV69eYWFhdXV1OnwFzAl4unXrlp+fX/fu3SlDBvl8BCm6379//6CgoPT0dLlcDg2M9LD/CbJ25k62QgpzplarMzMzAwICLC0tySFOM81FFQFLIBD07NkzKCiooKBApVIplUqu9qNWq1UqlVQqjYuLmzJlCvyi4G06rXE/8ng8Y2PjhQsXpqSkKBQK+CzUarU+E6vjg/VPkIL/SalUpqam/t///V+/fv0wzW25FE2/gYFB//79t27dmpOTAyc7l0shk51l2aSkJHd3d3A+IyOjV0IK/I/H4y1fvjwvLw8d01t/HR9Pzc3Nf4IU3OLQYEpKSkQi0aRJk3RsQAITmNPMmTMPHTpUXl5OTnZuvhT0qtLS0vXr15uZmQkEAm7oBk1ZWFjY2dl16dIFHyEKDQ0NhUIhn8/v2bPnd999J5FI0L6eS3V8VLVAittR0q+lUmlycvLu3btnzZo1aNAgApNQKBw0aND8+fNDQ0Pv3bsnk8kw39xGqMyybHR09NChQ0lQ0n4IBweH2bNnb9y4cc+ePYGBgTNnzkRqDfQz2AQMw8ycOTM5OVkPKSJpBy+0AylujzUajUwmy8rK2rhxI0GqW7dumzZtKi4uBpjA1bj6E7eFmpoaZB7T47AWR40adfjw4cLCQplMplQqGxsbnzx5Ehoa+s4773B1doZhTE1NIyMjGxsb9YKPS9gOW34ZpEgTqq+vP3DgAGHC3t7+q6++gtMIzs+XsJDk5GR3d3d6FoVhw4ZduHABijwhUqPRNDQ0HDx40M7OTqf+ihUr9KHoDoshnY69AlIwA3UgZWdnt2/fPoIC9i+gpk7rWq32zJkzEJrwRzAMY2lpuWPHDgryAI4EyvLycl9fXyMjIy6q3NzcEhMTycWl85Z2P75R5XZb+ItvQt8gq1ar1bIsK5VKa2pqKisr6+rqUKEtq8Z9+vsXd7vt614GKardLqRexwOpUqnCw8Ph1UTaMZ/Pd3FxuXz5MjXOLcA+EIlE5G4FsN55553Lly+3pSb3WZ2yRqPJycm5d+/e3bt3k5OT7969m5SUVFhYqFKpdGp2kI9arValUimeXwUFBTdv3vz++++/+uqrHTt2bN++PTo6GkJDpVJVVFQkJiYm/XElJiampaUhYeR1JuVtj/ftQkomk+3atcvMzAzbSrHZZvbs2Q8ePGh3YOBVYrHY2dmZy6V69+594cKFNzX3du/ePWPGjIkTJ06aNGnixIkTJkw4evQoN4m+3T78t24izFpZWXn69OlPP/3UycnJ2NgY2yS7dOmyePFiBM1kMtnFixfHjRs34Y9r/Pjxq1atgtHd4SDVrrBQq9WlpaUhISE0xz169Ni5c2djY2PbOdZpgSCFbAVAyt3dPTk5GTV16uPjuXPnnJyc6HUMw/Tp00csFrd93cunPyAgwMzMjJuu8+WXX9bV1b38qf/WtxqNpqKiIjQ01MHBAUiigJi5ufny5cvBpWQy2bFjx7jEYRhmypQppaWlHQFPf/JLwZ8EPgGlu6GhIS0t7ezZs//4xz8mT55MwzAzM3NzcwsLCxOLxY8fP25qaqI8TzxOjnilUhkeHm5ra4tsKrjjhw4d+sMPP3D1ejyODqhUqp07d3bt2pVexzDMkCFDrl69+qaTvWzZMuw3JFft3r17OxqkSENqamo6c+ZM165doSHAgQdsmZmZBQQEYPgymSwqKopLHECqrKzsTenzluq3CD5K1IQdJ5FI7t69u2fPnnnz5g0cOFBHWcY4TUxMhg0b9vHHH4tEIpLlyucXudE1Gs1PP/3k5OQESNGDq1atKi0t5Sr4eAThoGnTpumEgGbMmJGcnPymJACkuNTvmJBCGDQrK2vatGkMw8DNi/iBUCjs1avX1KlTw8LCMHy5XH78+HHuoBiGmTp1anl5+ZvS5y3V/xOkEKErKSmJioqaPXs2PNqYXZpjHo8nFAohwgARW1tbb2/vs2fPVldXowWKylVXV0dERAwePNjAwMDQ0JB2wQ8ePPibb76prKzkMkWWZZ8+fRocHIztzvRGhmHWr19fWlr6piT4H4KUXC6PjY01MTExMDAQ/nGZm5t/+OGHERERt27dysnJgdz/X4IU+FNmZuaWLVv69+9P6wCORzq5BQIeIoziygzDODo6ikSi/Px88B7wuV27dg0fPhxxGOAJS1AgEAwfPjwkJOT27dsFBQUVFRX5+fmxsbErV67s3bs3nbyAPnTr1u3EiRNyuVxH8Xolwt4IUhDWOuoabEwdS5NUFiq07QmZ9FQHd5qbm6lAZZZlGxsbjx07huWKlCFsyoXrhHIStVrta0KKaEUFvA4fdUaE/lOfdT5SCyigmg656FmtVtvCpWBuZGdnL1++3NLSkvBEBVIVASMuC6E6/fv337lzZ/bz6/Dhwx9++KGVlRU9iDCLoaGhkZERmJyVlZWbm9vy5cvXr1//2WefjRo1ysTEBHEbcDXoQAsWLHj06JHOGNrOYts7bwQpSvcjVHEVRO4ckNJJcOG+mijOrYbH4XPCQHCHsFJXV7dnzx7YxUhsNDU1XbRokVKpRB2lUol4/GtCitRTrHD0kF7HDe0TsiEx0EkaBcGoubkZPVer1egM9zwVLq1aBV9xcXFwcHCXLl3ahQuNFsKO8jmpMqDTv3//JUuWLFq0qG/fvlAzhUIhyTsKG1PwGKChRgidyO/j8/lDhw49f/58U1MTZojmmzuLLyq/PqSI1izL0itAwbZ5NSSsWZatra0tLS3NfH49efIkPz+/rq4OOICGpFKpaDEQjGC74S++ffbs2fbt27nDx443mkVYM0g7ex1dCsoxAVEHUsAZjRQJSAQptVrd0NBQWlqanZ2dkZHx+PHj3NzcyspKmUwGByw1Sy2gnyBjC6QkEklUVFSvXr0oWEvDo4KRkVG3bt2sra2xE4YrEMntRPIRbIZyVOzs7JydnXv27MlFFZmBOpIOQUCBQODg4CASiSoqKsg8pDG8CEbc+68PKZlMdv369YsXL165cuXSpUsXn18///xzZmYmDA4dqEml0kePHkVHRwcHB69evdr3+fXJJ5989tlnW7duPXXqVHp6ulQq1Wg0SqXy4cOHYrH4yh9XbGxsZmYm4CWVSu/fvy8Wi2NiYnx8fIjUfD7f0tLS19f38uXL6NXDhw/BFF+fS6lUqqampoyMDLFYjBHhr1gsvnv3bkNDAxETHBp4zc/Pv3z58t69e1evXr1o0SKf59fSpUvXr18fGRmZlJRUV1eH5Z2ZmXn16lW0efnyZbFY/PDhw4aGBgZO24SEhDFjxsB7RHwIMg55B97e3hs3bty3b19oaOiaNWvmzZs3ZMgQuHx06iPJDgoBn8+3srIaP378l19+eeHChTVr1tjZ2QFJpOCDY5HNDI7F4/EGDhwYFhZWVFQELk1rnQual5dfCSmSTTExMePHj3dycnJ2dnb64/L29k5KSiJyg7c3Nzfn5eUdPHhwwYIF77zzDoGACkjVX7BgAXJ+5HL5rl27HB0dnf+4xowZExERgZ5XVVUFBwc7Ojo6OTl1796dGmEYxsDAoEePHuiPq6vrjh078MhLIAVpRYNSKBS///67j4/P0KFD/xjT///v4eFx+vRpCoiBtcD7eObMmWXLlo0cOZJyjbhdsrW1nTlzpkgkysrKUqlUkZGREyZMQMvDhw8fOnTorl27ysrKGLVaXVlZuW3bNjxMu9ENnl89evTw8fE5ceJEbm6uQqEAM5dKpU+fPj1x4sSsWbNsbW1J7yH5Raxo2LBh69evv3HjhkQi0Wq1T5482blzp5OTE/AEPkeIhDDl8Xjm5uYTJ06MjIwsLi6G4Hg5dF707cshBRaiVCp/+eUX2BBEAYZhBg8eHB0dTdEb4Ill2V9//TUgIMDU1BSCnktxbhlr6fPPP8/Pz1+/fj0URFQwNzffuXMn+lxWVrZ48WLug+2W4ep8JaQADkhqpVJ5//79+fPnk8aC2bG3t9++fXtRURFGRJUfPnwYHBw8cODAdjvAvdmjRw9/f//ExMSQkBCdZbBu3bri4mKGZdmEhARKh0LiJVRpOzs7OoRTpVKRpoauK5XKzMzMdevWde/enTLQ8W4ej2dlZTVr1qwLFy5UV1dzhfSzZ8/EYvHatWuR3MdN7zQ0NOzbt6+7u3tISEhCQoJEIiGV+UWgefn9V0JKrVbfuHFj7NixXMcbn893cnKKjo6GjYlXgEeeOnVq9OjROBwQlj6X1twyNEgjI6N169YBNIaGhqjA3er4H4cU1jxOW120aBESaEkC9O7de8eOHQUFBaQOKpVKuVx+9epVDw8PCwsLUpG5Y9EpA5re3t4LFy7U8Ui3QKqhoeHw4cP0GHiGQCCwtbVdtWpVYWEhAMRNN4A2B/0mKytr0aJFbZesra3t7t27wdiQxAJLAU9VVVXdunUrMjIyKCgoMDBw5cqVgYGB27Zti4qKSk5OBk/GAtKxTV6OIZ1vXw6p5uZmJN6YmJiQe51hmEGDBp05c0YqlXL1p+bm5hs3bjg4OIAlw3tEKCHqUQE83sDAwMrKatCgQXgK3749SFFc+cmTJ2vWrIHWSwpGnz59tm7dmpubSwsVSnpKSsqcOXNo3knU0Fh0CtBbbGxsevbsaWxszP22BVKFhYVLly6lL0gYubq6pqSkkDFJ1grp9pDZLMvGxsY6OjrqdEUoFC5fvry2thYMlsQ8noJiqFarGxsba2pqqqurnz17Bn2WbFp6EWmROoh55ccXQQpjSUtL++ijj4yNjeGDBaocHBwiIiLkcjkELvW2uLgYW/UJUpgqhmG6d+8+ZcoUHx8ff3//Tz75ZObMmaRjCYVCEJbrwONCSiKRnDp1au3atStXrhw9ejTNAhIPx40bt+b5tWnTprNnzyLJ8UW6VFlZGXhPfn7+9u3b7ezsCPd8Pr9Xr17BwcG5ubmYDoxLo9EUFBSsX7/eysoKohmzj6ns2rXruHHj5s+f7+/v7+vr6+HhMXToUDgEYHVx1yF63gKp1NTU4cOHcwfD4/FwDNBrHm1QUVERGBjIbQFlLy+v3NzcV07826vwEkg9ffrU19cX/AlCis/n29vbh4eH19TUEN1JZIeGhhoZGYGIQqEQOQIMw3h5eUVERPz222/Z2dl5eXm5ublJSUknT5708/Ozs7NrS3SGYQApWmMSiaS2tragoGDDhg1cGnbt2nXLli3Pnj2re341NDRAULwIUiUlJSqVqrS0dO/evQMGDIA6izhHz549161bl5OTAyQRwZVK5Xfffcd1awNYXbp0mTRpUlhY2LVr1zIyMvLy8nJyclJSUmJiYtauXdunTx+KQurwkRZI3b59m6vew+gbMmRITEwMhk09aFuAdqVQKCIjI5EUBaIA7G5ubv9CYK7tW/7lOy+CVElJyZo1a6Bik0iysrL64osvKisrMXMAEzhlQUHBkCFDsOj5fD5tiF22bFlaWppMJsOxlMSPWZbNzc3dv3+/TtYXiMOFFPilWq2uqakJDg7WgdT27dtJ3yBp1S6kpkyZUlJSUl5eLhKJhgwZwsUTFJhHjx5BzHHds/n5+R9//DFEHr26S5cuXl5ecXFx2EJCsgLaTnFx8aFDh0aMGAEtrX1IXbp0iZpDgcfjubi4JCQkvCak1Gq1WCx+7733qB300tXV9datW/8yIP79B7mQAsPYu3dvUVFRcHAwWD3whK+CgoLKyspwuh/oSFLv8OHDJiYm0MdJ3vn4+JSVlcGjiL9AIRQalmXr6+v37dsHbYPLrkjwkavzdSAFvfslrs7MzMyjR48OHTqUWIihoaGlpeWCBQvS0tLwOJdLaTSaK1euvPfee3AKggsgAn3z5k14a7l4ojXW1NR0/Pjxd999VwdPDMO0cKkLFy4QFAhSUKReZ1JBl6tXr3JVAfSv40AKNhrDMFu3bt20aZOtrS1ATws0ICCgtLQUBgQWEv5iN4eHhwc5YwGOYcOGZWdng+KIVNDyQwG2RVVV1YIFC+BkIiJzIQXGptFo2uVSO3bsoE0i1H67XGrs2LEREREjR44ka9TQ0NDc3NzLy+v3338HLySDHdPa2Nh44MABc3Nz0p/gCzx27BhMEy4/w7N4EL0FGWlQKLRA6urVq9wvIPhGjhz5ogNYdHAGD/0PP/zg4ODAbYdhmLFjx965c0en/l/5kbgU/SaAq6urmZkZPpK99umnnyKBmLZKk0Gg0WhKS0vt7e11hnbw4MHm5maab51BgSZA1a1bt5CzRS0QpGCIoJG2kLK1td26dWvbV7SFFJ/Pt7Oze++998jJDDx9+OGHt27domR2nU6WlJSsWrWKmBO698knn+Tm5hL71HkEH2Gz37lzZ9y4cTQoFFoglZiYqLP5k8fj9e3b9+uvv263xbY3GxsbQ0NDdexJhmFmzJiRlpbWtv5fdkcHUmSnQN4BUn5+fnl5eXBVIHSFNU2dTEtLAwqJfKamphkZGdCfqBq3AI6Cuayurh45ciT8jWjhPwspghH8OJDOJiYmU6dOvXbtGo2I2z2U09LS5s+fT3yaYRgrK6s9e/bQoYe0rnSehQSsrKz09/fn+vNaBV9mZub06dOJXtD5jY2NfXx8amtrAVjiumid2DXempWV5e3tzW0BZWgbeAQtkGx+UXfJg0CS+yU1dYba9uOLIEU5bgzDfP3114hJk7NN541xcXFdunThKkODBg0iz1nbl3LH29zcLJVKcb4SOXX/s5CCVIXRSmvGyMjI19eXRDlXhFGH79696+7uDiDCw+no6Pjjjz/STOnQgR4EJBQKxY4dO3R+Uq+FS5WXl2/atIkLCCB3yJAh0dHRZGjoHFJNSZiNjY3ff/99W9FgaWm5ZcsWqVSKHgAiMDqwfKVSaXFx8f3792/cuBEbG3vz5s3U1NTy8nI6sgyCg6tR0qhes6ADKT6f3717d7iSKYvQ1dU1ISEBLll0UoeU58+fNzU15dJnwoQJtKhe2RO5XL527dq3x6XAAkxNTa2srOBfRVcdHBy+/vrrxsZGyKm2/UxISJg+fTogBbfZuHHj4uLi2tZsewes4eDBg7169eJSpgVScrn8/Pnz3C+gTpmYmLi5ucXFxUEocIU6omMqlaqhoeGnn35ycXHhbhlAU926ddu6dWt1dTU538noqKysvHLlSlBQkLe399SpU11cXJydnV1cXKZPn/7xxx/v3r377t27oAUBuu2oXucOQQpRJoZhli1bNmnSJHIfwBU5bdo0/PIbeQG4jYvFYh1IjR07lgwibs12y1KpdNGiRW8VUgzDDB061MfHhzxnmAJHR0c4SLnsgDqZlJT0wQcfcM2UUaNGXbp0iSq8qAA8sSz7xRdfdOvWjYucFkip1eqMjIz333+f+x3mwNzcfNq0aWfOnMG+RHoH1M+KioqoqChXV1eIc+7vE/F4PBMTEycnp02bNt25c6ehoQH9kMlkv//++/r160ePHm1ubo4VhlGRRWpjYzN9+vTQ0NCMjAz8eCkXzdSH1ykQpGBX83i8AwcOnD9/HifSGBgYGBkZodvr1q2rr6+HL0CHS927dw+bxog+3bp1w96BV3ZMq9XW1dXhZzLfnuDDdoZLly7NmjWLOonTlGbNmnX//v12BV9qairOJCeLr0+fPt99993rDEqr1dbW1i5ZsqR9XQr5VkePHiUPCmYX8lUoFA4bNmzdunUxMTGpqal5eXnZ2dkpKSknTpxYvHgxHZ4B/gnGSwl3fD7f2trazc1tz549jx49qquri46Onjx5MlI9MXhKjyFaoNC9e3cfH5/ffvsNxy68vqDhQo0gBb7LMMzevXsrKyt3795tY2ODUDcAbWtre+rUKZzmyIWURqMpKirCqX/cHp47d+7l6jn5S+/fv29hYYFNCmjhP65LwZmUn5//008/DR8+HIPFXNja2q5Zs6a8vLythpSXl7d06VKiv0AgMDU13bBhAwmWF5mKMF8ePnw4ZcoULk1a1XMIpqysLCRCABBUFcAyNTV1dHT08PCYP3/+3LlzP/jgg0GDBulkDMOtTEFK4qgCgcDe3t7T0zMwMNDV1RUMg8vS6F3cAvicu7v7b7/9RlFnHVuMi552ywQpahk7ZCoqKpCgQokfDMM4Ozvfvn1boVBwIYWTRdFtaoRhmEmTJtXX11Pqi87bkXWNjHIcT0I+egrI4BEoms3Nzf+OE4H28VVWVu7fvx95jjD9BAJB7969IyIi6PeniWPV19dv27YNvAD6pUAgmDBhQlxc3IssFfRZo9FIpdK9e/e2VaBbBB8YgFQqvXHjBsQfySBINPzmAgEI32IpIOAKWqNzQqGwb9++/fv3BztFvi9lesCLj4/cGWpbRrhbKBR+8sknGRkZUJxftG50ZpQ+vghSGo3m7t27I0eOJH0WBt20adOysrK4nB/E2bFjB5fDg72JRKKXQAourtjYWHt7e+6hpm8JUlOnTq2oqNBoNE+ePPn000/Js4AVPnbs2NjYWAoMgD4sy54+fdre3p4kjEAgsLS0XLVq1dOnT9u1VAhSt27dev/995Hcy527FkjBMYpTU3788UeKqwAT9FOzxL1wn9DNbZfH440ePfrbb789fPjwBx98YGlpSc5cwiXtkKGu2Nra9u/fH9KBbiJKZWBgYGtre+DAgWfPnr1kkIQhncKLIMWyrFwuj4qKsra2Js4PXWfz5s1wnVD2PvCHAA64Gs5Sc3BwiIqKampq0nkp/CByufzSpUsTJ06k8Mhb1aWmTZtWUVGh1WoVCsX169cnTZpEK9zQ0NDMzMzf359WJrHhtLQ0d3d3rF6sLj6fjxwY5FRRTRqjWq2Oj49fsGAB5YvTlLUKPtQGB66trT127NioUaNAOyxHkg5c7kUQQQwVu4UmTpx49uxZyfMrPj4+JCTEyckJmj5t4oMIgOAbM2bM5s2bDx8+HB0dLRKJVqxYwT3jBaKTYZgxY8bcuXOnXXOMhtpu4UWQArerq6tbsWKFqakphoku2dnZ/fOf/4T/ghS4pqamhQsXYsiUzobMqsDAwMTExKqqKqQoqtXq+vr61NTUL7/8kqQ8HnmrkMLWUEyiRCI5efLkwIEDuapIjx49tm3bhnMTYMJrNBqJRPLFF19gfzNXD+7Tp8+yZcsuXbpUUlJCnk+JRPL48eMjR47MmDHDysoKgyJIAFgtXAqTQZrN4lkAAA2JSURBVBsqqqqqLly4MGfOHIg24orch0kgUuSrW7duvr6+V69eRSomjP/q6uqff/558eLF/fr1ox6jQR6PN3PmzMuXL1dXVyM5SSaTFRUVnThxwsXFRSe30NjYODw8HN7FtuumXTDh5osgRY9kZWW5u7sbGxtjviH+RowYkZqaClRBy9ZqtXfv3oVVQWFjEFEgEEydOtXf33/Tpk07d+4MCgpaunSph4cH7UMnNv/XQAqev5KSks2bN3fp0gXZE5AkAwYMiIyMxO+WwVml0WhSUlJgJ2K6IRzwu8MuLi4ff/zx6tWrt27dunnz5mXLlnl6eg4YMADc4bUgpVAo5HK5UqmUyWT37t3btm3b+PHjwaK4eAIpyfK3sLCYOnVqeHg4DpRGBAB/WZZVKpXnz593dnbGiqE9DmPHjo2Li8OmZHJparVaqVR6+vTpwYMHQ7wSU128eDHCtP9ZSGk0mmvXrvXp0wcsirxrs2fPLisro8QSWDBhYWHEvKljZIUYGxubmZlRVAryDngyMTGBcMFTb8nig1kHmiuVypSUFE9PT4gI8uu6uLhcunQJCx6jk0ql0dHRZCcCKNCbwS8MDQ1NTU2NjIxAHGI0fD4fe6OJFO0IPvSG6CiRSG7evBkSEuLn5zd69GiuIc3j8WxsbCZOnBgQEHDw4MH4+HjsVoCkIJcmtJ/jx4/jdxzAqAwMDLp3775///7GxkZUwFO0bmpqahYvXow9otRdRKD/NfWcZh1OBO4xG2q1Wi6Xh4aGIu0awQ3Aa9OmTTKZDGBChqdEIlm9ejU2hIGfoeW2Ri5FqYVCoZubG+Ie0MD4fD4gRVY9wgP/psXHFXxoUCaTicXiUaNGkfgTCAQmJibz589PS0vjhjGePXt2+PBhR0dHCBAgCajCMGl5Q0MAfxk9erSbmxslyaHOnwQfBde4bECr1TY1NWVlZYnFYu4PgVhbWy9evPjWrVt5eXnQT7nJD5REAVt6//790ILxVh6PN378+OvXr4OmeB3RF/CKjIzUSTUcMGDAxYsX39SJwD0MCNTROWYD1K+oqPD19YWLHHyFYRgbG5sff/wRm/hgK7EsW1paum3bNqwQhmGAEkAK6xt/0YhAIJg8efK1a9ewQ4ZMZoIU3o7ZfR1IgUptMxEYhoF6zqWPRqOprq4ODw/v3r07KRI8Hg/JolVVVdzKVVVVR48edXV1FQqF4EMYAqYMpOOupeHDh584cWLLli10BCZwpgsp0jCoQDOtcwqevb39gQMHXmejgUwm2717N1lz6OKsWbPu3btHb+EWAMd2jyz7+eefyafCfeQl5aVLl3ITVtvlUhhFSkrKqFGjuNYrwzCjRo3CQf6Q43K5nGXZurq606dP+/r6du3alZYyMUIUBAJB165dAwICrl+/3tTUhBgfcVxsuoIqjTgEy7JtIWVjY7NlyxZEHTBGPNLuYUDEpYga8C3l5OQEBATQq1FwcHCIjIzk2qrIAbx06dLKlSuHDRuGwA6xKHociPT09IyOjq6pqQkNDdUJyAQGBhYWFrbsNqaucAs0YB1I9erVa9++fSDxy6dZoVCEhYURpNC5adOmxcfHc1+EMllYMTExjo6ONBKGYfr27fumR5ZpNJrr168fPnxYJBIdOnRIJBKFh4ffu3dPLpfTq+E9Aiv65Zdfvv32W1QLDw/HIw8fPiTtBNUg1nNzc2NiYoKDg+fNmzd69OjevXtbW1vb2tqOGDHCy8srKCjo9OnThYWF2NJ08+bNcM4VGRkZHx8PrGDiNRpNU1NTQkIC1RKJRN99993t27e5u3QAKaVSmZ6ezq0ZERFx7tw50j2ImCzLYvdVREQEt75IJLpy5Qr3NEBoV0qlsqSkJDY2NjQ01M/Pb+LEiX379rW2tu7ateu77777wQcfBAYGHj16ND09vampSaVSJSUlHTlyhFoODw//9ddfJRLJqyGlUqlqa2u5JwoDUnBqvxxSGo3m22+/xeE+JInfeeedkydPgu0TZaFXgcSbNm3SOepj2LBh165dIyi8TgFiV6FQyGQyuVwuk8lg7HAlOyl/AIpCoZD+cVEZE4ne4i/ezrJsZWVlenr67du3L1y4EBMTc/bs2Zs3b6alpVVUVMALj/blcvkfrbb8x7ckBFDAz6KgBvqM38+hwVL9tjURttJRP0BbOOGoA7I/Lm4sGTVBGRz08OTJk/j4eOysP3fu3NWrV1NSUgoLC3E8HYEbVKXGEU1/BaQwx3V1dVxI2dnZ7dmzR6FQcNcQjVynACkGkwd/jY2NAwICCgsLsTiQJ0NmQWpqqpubG5dFMQzj6emZmpqq03LH+Ygpefnq6ji9ff2eEIi56/CVj78CUiBWW8F34MAB6JWvpOPjx4+RoEfpudhWtnfvXhjqxK5Ylk1PT1+xYgV+Z4uLqi1btlRWVnI1ylcOTF/hv0WBV0BKLpc/ffo0Ojray8uL5tjMzMzLy0ssFufn578ozkXjkUqlYWFh5CdE5qFAIBg4cOCKFSvOnz//6NGjgoKCBw8eHDt2bN68edgOT+Yhzn49e/YsVLc3Wi7UB33hr6SALqSI1+GYwwMHDnh4eDg5OVGQC0amlZWVs7PzRx99dOjQocLCQq4vqm0aYXJysoeHB/nNKVxoYWHh5OQ0ffr0WbNmTZkyZeDAgSYmJmS4kn922bJlT58+RbN6SP2V4PjX3tU+pJqamn755Ze5c+f27t2b65AAoyJwGBgY9OvXb+nSpb///jtUK6VSiaRb6o1Go2lsbDx69OigQYPwIPl+iO21LVD0fvz48deuXaMfetRDigjbYQu6kGpubpZIJOfOnRs9ejSceO0mbZL8MjAwsLS09PT0xH4MaNykYME0YFm2qKhox44d9vb25NFvCyPuHXAyZ2fnkydP1tfXg0W9qfe8wxL9792xFkiRvFMoFLGxsc7OzggPkRMPp+PBSQqQcVFlbm4+Z84cyhfgQgoKvlqtzsvLCwkJ4brFIeO4SKIyj8cbNWrUsWPHoJWTta/nUh0fji2Qwg4FjUaTmpo6e/ZsTC0lLXE9+tyvEJQGMiwsLJYvX56fnw8PU9uRa7Xa4uLi48ePT5s2jY55Rcs62LK0tJw/f75YLK6pqYH3q914UdtX6O90BAq0QoplWYlEsn//fsre5x5x3qNHj3nz5m3YsGHt2rUeHh4kwhBkBc7s7OwOHjyo46CjQcLFJZFIEhIS9u3bN2vWrL59+xK2GIYxNzd/9913vb29IyMjcTY/3HRcpxy1pi90WAq0Cj64heiHPSh8aGVl5eXldf78+ezs7KqqqvLy8oyMjLNnz3L3Y2CvC4/H8/T0fPz4cbujpZQsYPfx48e//PLL8ePHDx06FBERcejQodOnT//66685OTnYq0mREBKj7Tarv9nRKNAKKZlM9uOPP2IvFLgOj8czMzObO3euTmgMGQq//vorF1XQuoYMGXL69Ol2Bwl1TSemIZVKGxoaJBJJQ0MDogrcDF1uoKDdNvU3OyAFWiDV3NxcXV3N/TkroGrYsGE//fQTKTQYAGZaJpOdOXNmwIAB5Eni8/nGxsbBwcHcHQE6Y+bGoXS+oo+vU4cq6wsdjQKtkCoqKvrss8+AJPw1Njb29vYuLy+HwUVdR2Ia9pQuXLiQdgQgHSIgIIAb5aan9IVOQoFWSOXk5MydO5eSZRmGsba23rx5MxLQuNY7IMWybHl5eVBQENfdwOPxFi5cWFRU1EnIpx9mWwq0Qio7O9vT0xOKNriUjY3N5s2bkSHO1ZGhaKtUqsrKyq1bt+q41xcuXFhYWNj2Tfo7nYQCrZDKz8/39/fnCj4jIyMfH5/6+nqE8IgigBROpFy2bBkxNihVixcvfvbsGVXWFzobBVoh1fZUICTL3r59W0eXgodJpVKJxWI6kJmAFRgY+Mr0hM5G5U413lZINTQ0HDlyBFyKInHm5ub+/v4FBQVcXQqRu4yMDD8/PwRqkIXNMEy/fv2OHDnSqSioH6wOBVoghYBMUlIS9gcjFGNkZGRsbGxtbb1kyZIHDx6QF7upqenOnTtLlizh7rlBoNfd3f3BgwdcxUvnffqPf3sKtEAKOxcqKys///xzqNuICmNbo6Wl5dixY/39/f/xj38EBQUtWLBg5MiROE+HduTweLxu3bqFhIRgW/DfnnD6Ab6IAq1cCueDxcfHT548mXINhEIh/cinUCi0srKysLDA0Svc0w0gLmfPnp2eng5H6Ivep7//t6dAK6SwN6GpqSk6Orp///4CgQBgArviWoKUQcU9LMrFxeXChQvIv9MLvr89bl4ywFbBBwVcq9XW1NRERETgp0Kgd+ugCpCikzN4PN6IESOio6PxExHcKN5LXqz/6u9KgRZI0fBIqTpx4gROBcLZEtwkFuJSKEycOPHixYv4fVLa7kIN6gudjQLtQAq/e1FfXx8fH799+3adjb/kZWAYZuDAgV988cW9e/fo6HA6OaOz0VE/XqKALqS4+ZMsy1ZVVSUmJh45cmTDhg2enp5jx44dP3783LlzN27cGBUVlZSUhB8FRe4A9y+9QF/obBRoB1JEArg0VSqVRCIpKyvLzs5OT09/9OhRTk5OWVkZjp6myvqCngKgwCsgRXlzlFFOZ2/oZZweQ+1S4P8BWikQhdsM/YgAAAAASUVORK5CYII=;imageBorder=#000000;" vertex="1" parent="1">
          <mxGeometry x="600" y="480" width="96.85" height="45" as="geometry" />
        </mxCell>
        <mxCell id="YhcMtgBvw5Yq8l-BeSyp-28" value="&lt;h2 class=&quot;title&quot; style=&quot;text-align: left ; box-sizing: border-box ; margin: 0px 0px 0px 1rem ; letter-spacing: -0.01em ; line-height: 1.1 ; background-color: rgb(255 , 255 , 255)&quot;&gt;&lt;font style=&quot;font-size: 14px&quot;&gt;kafka connect&lt;br&gt;Source&lt;/font&gt;&lt;/h2&gt;" style="text;html=1;strokeColor=none;fillColor=none;align=center;verticalAlign=middle;whiteSpace=wrap;rounded=0;" vertex="1" parent="1">
          <mxGeometry x="415" y="482.5" width="110" height="20" as="geometry" />
        </mxCell>
        <mxCell id="YhcMtgBvw5Yq8l-BeSyp-30" value="&lt;h2 class=&quot;title&quot; style=&quot;box-sizing: border-box ; margin: 0px 0px 0px 1rem ; letter-spacing: -0.01em ; line-height: 1.1 ; font-family: , sans-serif ; background-color: rgb(255 , 255 , 255)&quot;&gt;&lt;br&gt;&lt;/h2&gt;" style="rounded=1;whiteSpace=wrap;html=1;strokeWidth=2;fillWeight=4;hachureGap=8;hachureAngle=45;fillColor=#dae8fc;sketch=1;strokeColor=#6c8ebf;align=left;" vertex="1" parent="1">
          <mxGeometry x="760" y="470" width="130" height="65" as="geometry" />
        </mxCell>
        <mxCell id="YhcMtgBvw5Yq8l-BeSyp-31" value="&lt;h2 class=&quot;title&quot; style=&quot;text-align: left ; box-sizing: border-box ; margin: 0px 0px 0px 1rem ; letter-spacing: -0.01em ; line-height: 1.1 ; background-color: rgb(255 , 255 , 255)&quot;&gt;&lt;font style=&quot;font-size: 14px&quot;&gt;kafka connect&lt;br&gt;Sink&lt;/font&gt;&lt;/h2&gt;" style="text;html=1;strokeColor=none;fillColor=none;align=center;verticalAlign=middle;whiteSpace=wrap;rounded=0;" vertex="1" parent="1">
          <mxGeometry x="760" y="492.5" width="110" height="20" as="geometry" />
        </mxCell>
        <mxCell id="YhcMtgBvw5Yq8l-BeSyp-34" value="" style="endArrow=classic;html=1;exitX=0.133;exitY=1.033;exitDx=0;exitDy=0;exitPerimeter=0;" edge="1" parent="1" source="YhcMtgBvw5Yq8l-BeSyp-5" target="YhcMtgBvw5Yq8l-BeSyp-8">
          <mxGeometry width="50" height="50" relative="1" as="geometry">
            <mxPoint x="330" y="270" as="sourcePoint" />
            <mxPoint x="380" y="220" as="targetPoint" />
          </mxGeometry>
        </mxCell>
        <mxCell id="YhcMtgBvw5Yq8l-BeSyp-35" value="" style="endArrow=classic;html=1;entryX=0.392;entryY=-0.067;entryDx=0;entryDy=0;entryPerimeter=0;exitX=0.808;exitY=1.033;exitDx=0;exitDy=0;exitPerimeter=0;" edge="1" parent="1" source="YhcMtgBvw5Yq8l-BeSyp-5" target="YhcMtgBvw5Yq8l-BeSyp-9">
          <mxGeometry width="50" height="50" relative="1" as="geometry">
            <mxPoint x="440" y="220" as="sourcePoint" />
            <mxPoint x="490" y="170" as="targetPoint" />
          </mxGeometry>
        </mxCell>
        <mxCell id="YhcMtgBvw5Yq8l-BeSyp-36" value="" style="edgeStyle=orthogonalEdgeStyle;rounded=0;orthogonalLoop=1;jettySize=auto;html=1;" edge="1" parent="1" source="YhcMtgBvw5Yq8l-BeSyp-37" target="YhcMtgBvw5Yq8l-BeSyp-39">
          <mxGeometry relative="1" as="geometry" />
        </mxCell>
        <mxCell id="YhcMtgBvw5Yq8l-BeSyp-37" value="Services - TF/ DSD" style="rounded=1;whiteSpace=wrap;html=1;" vertex="1" parent="1">
          <mxGeometry x="80" y="710" width="120" height="60" as="geometry" />
        </mxCell>
        <mxCell id="YhcMtgBvw5Yq8l-BeSyp-38" value="" style="edgeStyle=orthogonalEdgeStyle;rounded=0;orthogonalLoop=1;jettySize=auto;html=1;" edge="1" parent="1" source="YhcMtgBvw5Yq8l-BeSyp-39" target="YhcMtgBvw5Yq8l-BeSyp-40">
          <mxGeometry relative="1" as="geometry" />
        </mxCell>
        <mxCell id="YhcMtgBvw5Yq8l-BeSyp-39" value="NSLDS - Solution DAO API&#39;s" style="rounded=1;whiteSpace=wrap;html=1;" vertex="1" parent="1">
          <mxGeometry x="250" y="710" width="120" height="60" as="geometry" />
        </mxCell>
        <mxCell id="YhcMtgBvw5Yq8l-BeSyp-40" value="&lt;b&gt;Solution Store Service&lt;/b&gt;" style="rounded=1;whiteSpace=wrap;html=1;fillColor=#dae8fc;strokeColor=#6c8ebf;" vertex="1" parent="1">
          <mxGeometry x="410" y="710" width="120" height="60" as="geometry" />
        </mxCell>
        <mxCell id="YhcMtgBvw5Yq8l-BeSyp-41" value="" style="endArrow=none;dashed=1;html=1;dashPattern=1 3;strokeWidth=2;" edge="1" parent="1">
          <mxGeometry width="50" height="50" relative="1" as="geometry">
            <mxPoint x="694.4" y="790" as="sourcePoint" />
            <mxPoint x="74.4" y="800" as="targetPoint" />
          </mxGeometry>
        </mxCell>
        <mxCell id="YhcMtgBvw5Yq8l-BeSyp-42" value="" style="shape=image;verticalLabelPosition=bottom;labelBackgroundColor=#ffffff;verticalAlign=top;aspect=fixed;imageAspect=0;image=data:image/png,iVBORw0KGgoAAAANSUhEUgAAAKUAAACnCAIAAAD/gQuGAAAgAElEQVR4Ae2deXgU17Xga96XNzPfm8zMs/M5niQvTrxviZ3ETswbLy82xjE2tjHYccwz3hfA4MSOHa/YZlW3kAQIEEiAEBKSEEIbkli0owXtG9qqeq9ea+vaF/6b+W5Vd6kltaAltHSj1lcfVFdXV9W9v3vOPffWOedCSvxvYdTA/1P/oIVR2HgplWjnLcuKLMuiJLOi7OclgpVwVvTRossvopRgowQLKZiJsRsJDtpIwUEJLj84GWNEkpP8vMSKkijJ6jUXKPuo482LEsEKFpxrdzK1Vrp42L+3h/i63beu3vfns+6ni5yPFaK/zXX88ogNSrdAaWZotwlKRsZsKQiUaob2mKH9ll9k2h7ItT9S4Hi22PnqWdfaBs+3Hb70PvLksL/OQrc7GQTncEbgJWmB8I8K3hjDD3q5oovk9hb87TPuuwpRKMcOHbJC+y3QThNkRKAEOLAZYMgAQ0YYHNS2xOCOfmTijkH9ufZvgvrb3SZw8UNWKMd+XyH6+hn3tmbs1BDZ72X8vHgNs59P3t0u/84m7OF8B7RfFdMkBErS4GlEx0JNRKCZ2kYbhHoj0IDUWycjQFvsNy8+jh7pIga8rCRfa+jniLcsK4IoY4w4iPPH+vDXSp1QCgJtGoG2qXUdIchxnICUR7ipzSjCuxgQyICAB9syAu0xv1PhLByihjAWZ0VBjHm1Pxe8HaRQjtDftuK/y3eAnlVTzobJ5VXnqmlvXZknafKn6uEsG3TUBmXbgebPtUN5dijfATZt/5gdfJVpA9tBtV/YbQLKQ1fpgX5h8mfQGofWlWwfgfaaHz+JbrrgqzLTToqXYlbwZ5E3I4hNNv+757z/lIdCe81AFg3wpDpZkyq9KSQj/3zQuqjA8XKla02d5+t2n7EHzxrEi2Cizkq1O/09HnrIS48QYLMQjI1gUJJFSdZCMBaCQXBmhKAveuguN92CUjVWqggmjgzgu3rxL1t9H9R5X6l0PZaPQgcswNAzBnv3yZqg1v60JpJmviHf8UmDrwOlY1HXzwpvQVKKBolbcu3QTlU3aubVRHVqVL9NUDVnEnLvUfs7le6j/WSDlRzx+R0062M4SuBYgRdlXpZ4ZSY2UeYZkacEzsdwKMWO4EyVhUzvwt4qd15/0Ap6mW2Tt0sAXu1BEsGI4ME8R/kIFVv23UzylmTZ5Rezu4kbD1uhrTDoBcMwDtaXqpwfzndsb8ZabDTFcorCj9lmgm5ETSR4X0nmvX623kJuOe+5/ZgD2G4p6uggYCVMKI4RhrbBd+TYcgdxLy2KsaDkZ4y3Bed3dxE359hHJSAUtqbMkxHokPWuQvRv9Z7KYQIlGcAjWN0RsZntRhB8GEnmUZItHSHW13iuO+4AY/1ktfs3jqUeHCvel2vf24PbCF6So9qmnwHeFCdm9xM/yLOD7nliD63ZugfML1W6D/fhrajfx7BRgTbipuOh2QsOf3o3vqLUBQyRBG0OYBx4GEpG7j3uKBkgo7lfv1reBCu+VO6Ekk2qWIdUgdbwt4z8ItOa2YObcZoSOFmcmT54XpqLJPMkz5lJOrMHAxM1EzssTYftQF475UIpLjqpT583I0jn7RTo5LaFWN2aRQPMGdPjJxxNVlKUgxo7YnmaF5xTuKmq8xut1F3HHNAuE7BRjCE1kKjOBh601lnoKOzRp8nby4ibLvjUEW2oTKuK7oDltUpnk5kSBdUEu2YwjyuIwgsiX22mVla4wDR+wljkBhjaa07rIaPNep8Ob4qX1tV4wFgrtF0bwMfXz7rqrBTDc1MQl3H1GGsfKY6rsZIvVbqAoIeaLwYYSjZtqPFwQhRNyE+H99qzblCwUNgJMJRmbnRQfoGbqYFybLUYSuDKYAKY8aHI1Wn5DTWe6JHyqfEWJHlzMwYmlvWxlhHMPPzltJvkr2ntHZnWcRDMIwUO1XQNqndQP6a0HjJK+vIp8JZl5eSwHwxDQ2HvNG1u9RHsAlLgl1c8tMB93eCBUtUBi1ZRal/e4mSiwWKfAu8hjP/hMbXxasVQldXBHpwV47DHjDM5nktpx8YgT4BvP2aPhrdrkfIWJXlXBzY69lBfIWT14WC4FZmuW1CncTy3pdkH7QjqQiMCbYVz+uZ/KiZS3j5W/P0JZ8AYAe854NXn3H4hLtmTNnda4O7KVWeX9e7viJ0R5nm2NVLefT4WvDwIaHIYSrc0OqgFJbLTKGybkxq1dRIRKMXUis5zLx4p75wBfHQezQA/Ueqk48J9xY5M4ZeccIyO0JKRzG58fq22SHkntflCp5C2Nnmn0d4X3E8UfncbFlpvm5qw2OC9qcE7Kt9JyLbmOO9Je+7RZq3wB3tC9KIR+Xu9b37fkkcq39n9Ic+diKyodAlxfR6BPv+kxj0q30nI9pYY0eddHhY8t/a23whD2bZhjB5tyFcs+YI8gRY48CpF9/NJMuVfnOchWaTy7fRzPzpsG+WdiOzsxqX44Psy7VjhD3dgoBPUXWL2mEcwNjb67xYbta7Oo74mUecQjMh/PWwbIlSHpMuUeaF+JUt8l9sPYpr0wXcC/OcSp8/PcuJ8vi6LVL6PdeCnzSRw4NVfixnguwtQMx5HPt5wkyV+2EcDZ3tdstWdCw6qyUbNb9BCpLxTL2BVJuKjWs9oGdTXvTcdd/S7aeBzuFBFeXzBFX6EoJ8sRNW55+B8agL8XZPXitObm7HYsM8T6r0batwEw4JYL11Haa48R23tKBVHDsArfJ+bgTIsQCp04TbAi46jHpo92IGtqfLGBu/va73QQWuH0z+M0cBnTS+M5tSx25Q7iJP8AnV2UCQQDoHz3KFeHPh4jZOHTFub0+/jOCgR+aQ2Rsbfm2q9UAL87lk3JXAtDhrSbfXAjDoCbR9ZXu6qNpMUt+BeonASX2Uhny1zqjo86OmgScIh6zkziXP8E0UolADHGG8oCTnQhYkyX22lrjtqGx1ZBqjD0H7L6jPuThezINS76rJ4wUG9ftYFujktrlgXgG0wdNTW5PCzAm9swzQ/kVjjbYShHUhxPy4qvAlnFuU5RidZA3H3autOMa0qcw37VDvumjTlVJdkB8G8WeECvZvqqzmqxlXf+8UlqAlnZIUvGMBV3wcQYh5rvLXGm4wUjRCcxCmX+I0NHuCDrbudaydoPtgG+OViZ7Od8jKcEMuRBqEWOCfxPoY7b6deLnaCtq7POepibYShXaavG7wUx4ky32ghQAi0Zu7EKm8j8Ebd24UzIs/L/GkT+ZsT6vAj1DVTK7/qxvpwHvpdK3bGRDqpWB2sSzLvpNgKE/l9s+/+PEcglFxv3JpuAw7IyK0FjjMIoSg8zvH7uvBR2ImxK9/aMGy36b1zHi/NKgoIrdvVjf9zll1t7yEGi67kjcD//n/l29+schcPER6SAW7LWnBeFA7cg1GDisR7abZyiHi72n1DvgPMl2lBQ6HDE2CXAYefn+fY93bhbj+jXBLMOLPqnBs0i9AzY1W+A7pLnRk+aG2yUMolQVR4O8WmdWHQATNQdPpLAl0INJ1vAP65UKpp+UnHgTZsxMdyOvh57+mDmAVJHvH5MzqwpwtR0PWCnAAhkd96ibTWvA1ou6xe3M2wwJvvEt/hpEDuiYl9XGzz1qknmzY2eu0kKyq8cknwMeyhdgzYq3ryndAK0ve1uFEDDB2wrCxCM7rxRjtlJRkPzYIYf4mfg5cxssSzEkgp4GU4C8XUWamMDjW3TJraZMf1zfqT6+yTTdAh6+EuDMTTXBJ4mXf62S/BWwZV4vXz9Z1rgbfWxhPgX2TZd3ThJpwBnC4JFMMc7ccfKXWCUEotcUqoZtOrQE/xAIJsESjVdP8x+4pKkChtexeWN0TUWKlW1D/oox0kQ3EcJ/GcxIvS1Ib42q/8AoeSIM9Hu9NfZaGODuLGDt/6856XKl335TrUxF/BrF9hH1UrqdpJQ4etfyhz5fbjILb5kqBcEhCcSenAQLoYrSB6AUN3rhHeWpFAq0d+lmtPbvfZCdCHKQpPcVwr6k/rIV88pY5Qt4+A6gitgtB99QpADQayuMCAgZYlLRtk5Ln5pGNxmfPVStdfq9zfN3qT23z72rF97VhmN36kB8/uDWxHe/D0DnxfO2a44P36vHdDjeeN064XTjlvKUShfDWPzyErtM8CWqF+o9Chc+gj6UXTEv3sNa8odaZ1421OPysJyiVggphxxtDqA2mDgD6bvHSxba9NrBTQ/INBZWnmz2s8ZhyYcsolQVIEkudMGF00RL0BgsURaOvIqBdf2EvpB3XlGUiqoaoBbc4ySTUFkk3AIEhWc2+kqP/qR/SpzYkX0duWfqNxO7ri2TIC7UDerHCVIYSFZEkejLI0mXaS7Jc1HuDRECj72JnUcRe8BnmHllDt/F4qdtbbKJefZQVeVtkrClDILXbq0yoPlGkFFq8WoKRNWeiZUibTqKG3mKn9AHu1sWqJ95IQaK/pxiz7xgZfO+rXWq2msRiRdzFsldX/kjb+Do19v+LzXFP6PGxpE2Bo68i/Zdr+2uDNH8IHfDQIUQiCF2XehNOlI8TmZt8rla6fFTigLFsgh2ZoorQrymLYW4c9qF9Kv75R6zXM0GHbT06g/1npSmjxnRkm7QQrSaL2qLLE+zmux0OfHCbW1HrUieRwmUvC3jH04LXPWyutNmbdaYKybStPOY1tvhY7BabnNPCqvcMKYKTb76XrrFTeIL6j3be2wbOi0rWowPE/D9vAnKXadEBHsA1kRQp0vXq+Ns0kDvwb/FY7TTt/6wj4bQIM7THfcMj6WL5jZYVr/XlPcocv/yJeb6X63bSPYUEsHHgqVWMrPMmyFxzUtibvsjInGGJpj3H5TjoU8Lj9hcJbs2yBbKnmTBKItIBSTUsK0Jxu3IwzkhjoEdWKBppfknlWCmRJc/pZC8kOEkynjz9tIY9dxNO6sLROLKHJ+1Wtd8NZ16pSNHR7q9y5/ozr21rP93XelHbfwR48d4CstpKdPnqYYKwk6/QHM7tJnKwEOxqN8SVe4NkRnz+rHf9jkRMA1rob7eGvspdZQLzHtXTtowEGWW+2jEBp5ucK0M2NvnKE7HL7bRSrjcJpkeNDXSKBJggK3+gOGA5daQvIqzYTLktgGphWs+65GdZOsp0ufylMbG7yLjuOAsZbVC0yccoobCkiP7jQeYfWlN6h7jRBe8235dhfqnS9V+Pe3uY71IsfuYiXI0Szg+rz0IMeehijUYr1MSzFgeyL6vAauFqIEidKYIxOCxzFcT6GRSkWwZkBL93jppsdVAlCHrqIp/fjm1qxt6o9Kytcd+fYgYGdAt7fB6YFr1KIQws1bj/OO/xYXI0/BQM2bVisAUg1AT+hLDUFbo4NynfcWOC46aTjnmL0nmL018Xo70rR35agv1E/3lqE3lKIXl+gZtDNsQd+lW4JvL1Qp7vBxbUZtNkDHOcdHvC4ehn3UTeq9SH49He0mfArDZTHPcBMfYzL93Twz1Ttz/114rzjvOc43CRS/3PNX3Fh4ZlxBRCX74XVgOK847zj+nyejOcZ194TLxhD8p3QBOINFpY4TgR2lUdiiPfeTjWU+SoLvOB//k0jNr/rH0Rqn1eYSTDjOGdTUddky0g2ZfcSc9xhj7tdpLytJK964167nesctLBUU58nRvKvURz3coWaBnsO6uWavIUBWZRnZwVhnMDN8cdI5VuW+LwhIrB66zXJY7YLtWWk2UYpUozwFiXJR3OLSpxXcMGc7Vqb9+sHHB80Zzc14iLUtWbit5rFY0CWFTgkmSdYfn4ToUcq390u4LbXjvpBIMGCsto0hNoaVCH+0f+Sh95biC4rcS4rc75c7nyuxPlsKfpkEXpjgQMsZpplA7luUtUg4QQYOmw14QwncWaciY18PXndOCsAd+vCYSIQODLvojarD6C5wat+03ccta+scH/XiuUMULVWuhVlhnHO5RcwRiA5geJEdQP7OCtgtOAg+YtetsnGlMH+lA5s/XlvpZkSRR7j2FPDVGzId0oL1mgGCZEl+VpHbgC5yqFE5OnjaGYPPoDxblqkeEmQZHnqY2dRkllRAoxlmeLFZjsdG/lbEuq9q8+5BTWQR5T5zD48ECw5q0I2ZxcP9LsItBO5Icee0YY7qXlOjDdLdnuk/TfI15NuabST2vJDgsgXDBDQEeu1MMkKvGUQ6JBtbY33DBJj6/1OtVlEylt7/728GMX0pWkUvt3pB+tuXTFuas7EdBo3MsBQpm1LG97tYudX006V3PTOnxpvKAFOavYBj/xgkD7Jc0f7cDUrbKy9TdkGQylIWifm9IvCQkCtNpAp8k4EtkxaFzZmTSIQI8k+V+wEgq5Fzk1DzubsJ1pXnYSsKHc5iGuzk76M6E+dtxrnmNiO4eOWdVb4MyZyaZkzIOvROUbXoj6z7Vl9BBNNyzxehtDMfjUt3moKoo9qPRQ7fk1BkuXOmsl3ajwgq8dk+RHmTJTH3cgAQymmv9Z5YG+ULtY8s2jDXm1avIPhzovyHCDlUkh3rvXrtMiZCWZ3uw9Mxm0Jl8tlHIk5+KhGCp4YomhBClsRC+TgdHlrhAwItAPO6cXxsJlT1XbQaCVXnEQDcd6BIO+5fakKOmwEOmhtc9ILBOplinl1vDVBT0JeOOU8a6ZApqWJmxrsieD00R781UoXyHuRFpLVara7efX6jxU6LDh/mVpYOF9dNW8t1tcAclK9ftbV6qAkLYR6Ing11Q6CM2fNpLEDe/WsCyyQkRAM5p7xYEztwZKQ96rcTioOO9CkZ4K3pttBUD+Yj3yqCB3wXiFzqiTzfoFz+tluH33sIv5JlfvuI1YQab0NDvT3M4LfAG+o9hIcmPheOBJ8+ZLOHG/d5lJF9qViZ7XV72VAdG4YJR96MJjljmLZfg9T0I1/VuVZWuAAibx2a/l3wBLjwcF9MCvQlUMGkRdLXNGwJO/lAczxt7PAO2DKgem2u3Md/2j2VqiZU7WJ9wjZSyLH8JzXz/a6/dVmMrcPT7rg++a89+0q9xMVzntL0JtOOgLhvvkOKBdk6wK5tvLtP8izax/XVHlpfp6dSeaYZSS3mzXeOnUDSJnyf/Lt62vdlcMESFCnJ9AMlfKp7HMSyOzmY1gXxaIkayGYcZud5HgxrsPDNIBZ5q137Xrmln3mN8qcBf0gbQsYuGvbVGBfQUOASwmKEocdBraiKHPCW+/aA8a8apcZ4esPWjfWe4pGiD6ccflZnAed/dWnTb0E8mjF/8LXwJzz1tlrcy/aeGwbfP1h69JS9KNGj6HdV4aQ9TaQqsVJcSTPMmEncyZRCXHY4TkHj84fbx28rvO1hCoGGLj5HQCpWv4pD739pOO1CtdXDd6Njd6kCyBXWq2Fanf6+z30gJcewUDn7fYHNjEu2UGuk/0fNbxD8WszoKMjruD8q5a4LcUEVtDQ/k0FyZzAhN0e8yOFKMbENflkoAPHo5J3KPtI9o3gxdexQSo+rXIF2vNgr0XCb6rnGJGnSp1eJj7aviLuubfPp8oykvNTTFUW/5XLGj/jWpBvA7KqzDW/Tvwx1JBivP9WLbtr1Vd8NppRjPM2wBsbvLNRL9fqNSPlDeINppTLP5J+9yrPMSLQfvMgtuB8TK+mLUbK23Ah+vL1GODV59x+fkH7o02VfaS8M7rx6JJvdR2KgqG4WT414pHybkZpwHu23c0i1/BGGDrmMBNxR6XZ4Y36RZB+PIp4I+9Ue6QFEwc0NaqTnx2pfDMi/36tJ4qiQZORajM1ebni34SvgUh5KxJfYyUDrsSRa91ZOtOIQPvMGDNembNgzaP43+VqIFLeOCtQHPdWtTsqVHoC/H6Fe1yxcIF4D0lUlLi5Pq5ixnyMlHeNmdTWygTLcM2Is/DViP5WuHRwTKJCXCBehDdBpTdlo8Vjyhf/MLYGIuV9rAPXlnaHMQYstjqPyFXHGNX9LVAURmT+PLIZKr8NOnULdPbX1b6msWWMfxqtgUh5G5uxggFCcy1tc/rVjjy4ftzVSOo0fmtAoHTLaAkUJctbBpXcBHhryBuXdNID8RiD0CrS9yPlvaXO+1QpSqrJPCQZ2G4/AEvYz0dOhwT4tVKnXgCYtkBnfh2ArSEvuwXqetMn4Po58R29BiLlDebPd5tOjhCa/6gsc11u/wul6DxMuiXAe9uwYAGkh3s/hMpuHsO7/Dao7JZ9jtzgOfH/R2sgUt4gX882+PZsm1tP66DwBMvt7sQDC8NNQzNP7ycGuAwOGGvniXbo9F3jYQOtfitU/ZC6gvNoUeN7U/c/3wa/XOqkOG7U6V/h213+fzkWXN1+tifg1BfeAzhwXZJkae3QdqjizjC8y2+Div9tjzUnznhcDUxFvrX1LLbBqyvdKMmEIvfS7L52DMoOUp+e4EbyKyMC7TSZScDbxXugtuXAJte67Yn/Nixmpfjb0jHEp85bpfJ8uSsQEBTi9z+EMSkdGLDjQHbZoBNxJBQjP8eIQAfMDgrwbiDaoZqHLse78o4Oqm9McRf8h2nxVhMS/jrP4cBB0uRRQZd4QeRdDJt3Eb8l0wpMOcNMG/BG5Fc5di8N/MwPOPOh8ttBVz1RsgOG+i+TrUeiH3FX/anC1C/T/vHy/i/+cuDLVw99+9bBjW+cSP2qq66cIkenlTCXvaH0SPqXf9n/Bdiytq3J+O6tfZ+uyDFu6KgrFfiI5pKnxVsTxwQY2m06YyFpIaQ718RdAQtsn7eQK4rV5bS1BIxa2srIRTnsmUb4gVy7F8QVyBvRg1DpLyeFDZDf/vzAZ9HPW1GUwY663Z+8mLx+6fGUfyiyRBLu0zk7je8+tv+LV0Z6miVpdJI4P/nT5PVLd3+8fLCjjmPZvraa3R+/kPjeH3OTPo4E+VXwTkSA0k5CPqjxdrppURwj6NrMjChwQ146sQ27pxiFDtlANj59leewOK940ADfn2dX40jkjc70K/A+deudfWtigvdId9Pez/4c4B184uK075PWPnXgy1WWoa7gMaU0favOW1EUnmNPH9uVvO4p47uPdTdW6qdNtnN1vLV8PUYEyrQltPhAbPdY9a6reorj2pz+IxfxN865/3umLZC6A8yMTrGbN8APn3D42MjkO4S3KIrD/X2o1aooSk9He03FKdRmlWWZ5/nO9tbq8jLUBr7S/7Tj58pKGqrOhipVURQH+3rtFrPA8+3NjfXnTns9Y97cYD5vY01V/bkzw/19oijyPC8G1yzRnuFcWcm58jLMN8bNMixv+0hfyodPJ697KnPL+/qDjeMtCsL50swda5/c8cHimsJ0/bTJdq6atyaRRhjk2zhoze7F/cL4JHw6dUUBaVtcfrbd5c/oxlcWqdp+q5qyR1sVIgL5DvJW9qA5l+u8y2+DKu58a+g7YMk77BvXr1n8sxuLMw6lJmz+at37Kx743ZtLFns97rQk49pXV6z8/X1L7/kJ5vPp1ZS0aWNOxv6Bnu6kTRtfuuf+/q5ORVH6uzv/8cFbS277cXHOoa8//OBvb616+q7bt6zf4KcCb+JHBvpXL3l4ZODiUF/vRy+8+P7y595b/uxe41aWBcsSpe9MOrQ7eaCnOyMlaemd9zTWVOm3C8ubIrCsrWtTNjxjeOcRGxwwPMfxZmmq5MCmHeueMrzzCGoa1C842c4M8dapJ8C3Z9lPDuMuP8sLEzS8bswHI/15get3+493429XuKB0C7QLAVuSuk2MGgRHQP/tU+21arwJqnrgcvZ52c2HbIWKonAsazUhz/7u3i/XvWMxmxRFaaqtXva7e/7+7ur+bgCyp6P98Z/dmJGSpCiKKIoJX33xyduv61X2t9dXvfHIoxYE5li2v7vzyXtu/kq9jiiKxw8fePz2nyODA4qi4Dj20TPPp2z8RvthRWHhov/2v1sa6gSelyQpa9/uvzz+kMAH3tlv/fSTFQ882N/Voc3zh+VNU0R+ymcpHz6944PFXecrtMsGeb/QWVfitpvKjyQmrV2StXWNDe7VH/gyOzPKO0AdgbaP/PyI7asWb42VDCTw0ElP3AmyB7Y9xTY7qMxufGOjd9Vp13MlzlsLHCBl2yErtN8C7QFhoXcdC9jnXt4Hta+4HO/Tdw7QsFZ4j9P54oP3F2Yc0OrXakJWP/pY1t5U7Vvc633+wXu+/ehDRVGG+/se/NGNlUWgoWh/vR1t//fG60pyjkqSZEWQZ35zR3F2hvZVS0Pdkptv7brQoijKUH/fKw/8IT/jgPbVYF/vf/zrDVobclgti3/+k8N7dgauqCjDF/ufuOsXmbt2aC0gLG/WTxXt26jxbio/pv1W473zo+eO7/ys/PC2vOS/pn3+SkVW4mBHnaZF9FuE3ZkF3rqsG2Fov/nOE46EFl+fxw9SKk8le4cggiQtHpodJphW1F9jpU7DZMEAfnIAD+bElNfBO6Cyyedbzj+rz7d4Xc6Vix4o2L/virwLj2Y+dN0Pm+qq9fpyOexP3Xvznk0bOY4dx7ujpWnpHXdrvG1m0xuP/HHrp59oPxzs6/39j35ceOyooij1504/8uPrTuZm69f0uV1/+eOi7Z9toGngYhuWN00RBbs+D8h3Q7n226B8A/tckSXc5y49bExau2T3x8vrig4p8qglr98rdGfWeIdST0SgVNONWfb0VsxBXFXaFlniRYXX33WaWVv4+XN1PrXcW6MX1eN2vfzwHybj7XO7n3/wbk2+s9JSH/7p/6iuPKX/1utyvfTQ71M+/5xlmcvwFkUxO23fkjtv1PqIjJSkt5cvY2iQxPNsafEfb/7XrLQ9+jUxn++9ZUs3r1/r94O+PyxvP+7L3PS+1n+7UJv22zG8FUWWZaS39cBX/5my4ZnUj1/wOMz6LcLuzDJvjbr+L0inNwIdsHxz3tvo8KMk4+M4RuSmnLMlJNB7ryVn9OW3PvFSctMdnaM2raIol+eNeUZ5nz979rGfXpf0/Td6q3KjjpWPPFiSmyXL8mV4K4pC4Pimjz9K3pooR5UAAAgdSURBVPJdyuZv8w+na7AVRent7Fh8y40fv7FKFAMZCXxez9vLlhxNTRJU6z0sb6/TnLx+afL6pXnJn+rwxvFWFMU23Jux8Y2UDc/s+fsKtw3Rzwy7M7e89Xw9WtqWA5YnC9F1dZ6MbuzkCNHh8jtIlpfEUXt+YmevHQnhrVwSH+7ZMEarn7oFqn+ijx4KLTDQ5w89UJAWXp8TOP7C7+/V5NtPEG89vvj5+35lRQJ9f3fbhdWP/zusGmVWBH76vtuKjgb671B9Tvv92z/528ncbJsJcTnsbpfT7XJqgBma/vjNV5647abu9lbtqeDBgXeXP9/X2aF9nMhbFMWzx1MT1yw+/P3bTutoWUoObA4df0ui2NVwavcnLyatXZKb/De9hYWWPXR/znnrsh5gr865JoO3INBh6w35jn8vc79y2p3Y5js1SLShfgfJBNZSCJp1wAiQx+TtMHN2qPM1MPeiza3WP1GC1YTmcqFIoqq85JGfXLf1ow9Rq4Wh6YqTJ5b9+o7P33vTgsAswzTX1y65+6dvPPukaWRYkqT+7q63nnrq41WrmupqmutqvlrzTnVRkSgKFEmU5OUsuuGHSV9/6rTbaL8/e3/qoz+7fl/idsznxXH8y/feXv7be1Y/+h9vPLnk7SV/enfJnza/v9blRBVFMcMjHzz//Lplz9efO91cV/PdhrVFOTmasSaJYkdtccpHzyateTLjm9etQz3m/o6KrB27P15emrHVNtwrBbWCKAiZW95PWvNkyod/qjuZgZqHOmuKM75ZnbzuTyf3fO00jzaLUMah+/PKewx7fYVGNYolCaRiBXladiEgq+Yh6yvF6IYz7m9qPCkXsFrgPDn6J8uyjXUs6l0PFHvjs330UChsRVG8HvdQX29bfW1Pe6t5ZJgmycHeno7Ghq7WFqsJoUhy+GJ/e2N9Z0sjarVqEulxojWnTh0/cqj2TKXbYdcOej3ugZ7utvra3o52p91GkeTF7s628+Cjw2KRZakw+0hd5alTBfnFuTk5+9P2Jmz76+pVqVvBHICiKJjH01xTVZh95HTJSZsJ4YNjs+7Gysay7Krj+6qO76su2N9Ufqz17ImuhnKP3czRfr1bwVz2jtqSmhMHtDPrizNrCtMbSo601xS5bMOsageMVsoke1HDO5R92H19mc6tMJRhmRjg7+Vx6NyvqrDGSUo6u4dlWW6qq8nJ2D9Oo6I26x7DVr3bnt2HiODqscNbbwTqFOxIuDBgqGm5jXVEUOqZP4VlGeOXn3+w7JmO5iaf28UwNOHzDfX1FuXltDWdn/n7TfeKMchbXSOpcCBMMNFdbW/rEyzTrZBp/k4UxfaG6k9WrXxtyaOrn166dsVLn73zZnpyUuv5+mlecXZ+Fpu8DfC75a6JFYJyDk4GM9Xz8ieJIoHj/d0dnRdaOi+0mIaHCDzqfGRjk3ciAu0x4xPix+YFc2zdNGZ5J5tOw2FUemzV/tw/bczyTkReqx7zCnnu6y4W7xgp76jL12OEoVx7fNWhqba5SHkntfmiKNhfm5vbaSoYovTpiKmWfGGeHynv7P4oy9ejusK9ecYVz880pYYbKe9uLwuiA6fqbqZPkszGDlgZxdTrmbcB2JQqOkpOjpS3mxZvPWqPLt5GsC7GN+dHnc6ipE6j+TEi5c2L0hfNPuBNHF0iDjzaVHf0aK7kKHq2SHkritLmZKDD1ujinQhE/M8VLj7EIz+Kajf6HmUKvDlBSmjBoB1T9BifjZ573DVTTDXmeKLFiBrXFHgriuLnpUX58xHjPw7wuI9G+OESJxZf3yAC4lPjrSiKICkBwy16OnI1SDjnIiWF+jlFUPgFeMqUeQNnSox99AQKgsHmJX/LOOHWPhpgKMtuwiOKkVyAmPUiT4e3JMsXfdwLpa6ZD/cNyzLCgwb4lXAvSfWixnemkM9jXGXJsoKz0vdNmBrkHR0WnBEEnx7pjLpXzuOqbn4/Tke+Q5/4DOKH0tVBWpTo9l2mWrM/3pGHMgrdv1resqwMYvyrVW6wzl9CFMzGGJGbc+w9Xi5uuoVi1vevlrd2IUYQz5joFytcwHd4fqmrUaVPF7l87BUiqfQqWFA7M8NbqzKKk5pRZkWxc547dTVs+NXSMA5uCwpt2MLOJG/9Bn0u9rmTKAgYCGRumXoehwht8suctg1+97Sb5OJSrmMBO7PCGyTDk+R+D7OlBbujwAFCt41q3NAcT9EY4HfPeV3+McFHY0q/8D7MFm+9Jl1+odZKb7rge6IQBWlbto7M3ajdCEPJyOozHiIu5UEes85bUWOUeVHysaKJELL6CKDqk8F7rUA3P6tCr/po3HLMIcT1uop8LngH29bo/xjD11moL6o99x1zQKlmKMkEJZvAm1aAR9tmdA4HpEw3t7poYcGvZzQ/vHXynCBZMf4cQqd3EO+c89x/EoWOqdla9prB/HwCHNiAn0VwcK+OuMC3kWzayWDqDWTJT+vGF7i/2zzz1sHLsiJKMskJCM61O5lKhE7rp7a0Yx82eFZWuJ4oRG89av8v6RYo1aS+p1ENfi1iVG8T43ZAYj/1NKM6TNhtgvabn8h3VI4s6CiFaOGtgw/dkWSZFSWKl3BWdNMiSgkWUkAIodtDn7dR58xk2TBRMEgeH6DGbYVD4KtKhGi2U/0+zkSAH6KU4KbFBT5Ci2reoezj+zNSA3HeM1KNMXOROO+YQTUjDxrnPSPVGDMXifOOGVQz8qBx3jNSjTFzkTjvmEE1Iw8a5z0j1RgzF4nzjhlUM/KgGu//D9IDlZpkoW5PAAAAAElFTkSuQmCC;" vertex="1" parent="1">
          <mxGeometry x="321.19999999999993" y="850" width="88.8" height="89.88" as="geometry" />
        </mxCell>
        <mxCell id="YhcMtgBvw5Yq8l-BeSyp-44" value="" style="aspect=fixed;html=1;points=[];align=center;image;fontSize=12;image=img/lib/mscae/Cache_Redis_Product.svg;" vertex="1" parent="1">
          <mxGeometry x="430" y="870" width="71.42" height="60" as="geometry" />
        </mxCell>
        <mxCell id="YhcMtgBvw5Yq8l-BeSyp-48" value="" style="shape=image;verticalLabelPosition=bottom;labelBackgroundColor=#ffffff;verticalAlign=top;aspect=fixed;imageAspect=0;image=data:image/png,iVBORw0KGgoAAAANSUhEUgAAAMYAAABcCAIAAAC6BF0vAAAgAElEQVR4Ae19d1xUx/r+2V1YinRsiJVYohBREWvEGiEqGEUJAaMSvxbsUbBdMRKsYTEkGsVYrgQ1iWvBiBo1oQgWQERAei8CC2w9u8u/v8/Ph7ycLNjuveZyw54/YPbsnDkz7zzz9pllmttcWq1WrVZrNBoU6uvrs7Oz4+Pjr1y5EhMT88MPP1y5ciUhIeHp06cSiQTV8LdNS/obnZECjM6gASOFQqFUKmtra5OTk0Ui0Zw5c2xtbRnO1bVr148++ujrr79OSUmRSCQqlYplWZ2m9B87JwVeCKmnT5+KRCJXV1cCEo/H4/P5PM7FMMzw4cOPHz9eXFysVCo7JwX1o9ahQDuQUigUaWlpn332GQGIz+cLBAKGYVAQPL8MDAxws2fPnlu2bMnNzVWr1Tqt6z92Qgq0QEr7x8WybHp6+qeffsowDI/HA27wF3ji8XjgW3w+38DAgP/86tmz5+bNmwsKCjTPL61W2wlJqR8yKNAKKfXzKz8/f9WqVcATFzTgTPgL7mX4/AKjYhjGzs5u165d1dXVLMtqNBo9fTstBf4EKZlMdurUqZ49e4IhATSGhoZ8Pr9Lly6Ojo7jxo1zdXUdPHiwubk5gEWQYhjmvffeO3fuHKzFTktQ/cD/BKm8vDwfHx8ejycQCEjqmZiYDBw4cMmSJWKxOC0tLSUlJTo6esmSJQMGDCCFnVT4RYsWVVVV6cnamSnQAqnm5maVShUXF2dnZ0dA4fP5hoaGI0aMiIqKkkgkRCatVltdXX3o0CGgChoVUOXq6hobG0s19YVOSIFWSNXX10dERECLIq7Tt29fkUjU1NTEdTtpNBqWZaurq/fs2WNpaQkI4hEbG5uwsDC9LtUJkURDboVUSUlJYGAgpB7wIRAI3N3d8/Pz1Wq1DqSUSiXLssnJydOnT8cjAoGAz+czDLN8+XKpVEov0Bc6GwVaIZWbm7tgwQIupCwtLVevXi2VSlXPLyINuJRarS4rK9u4cSOPx+Naf35+fhUVFVRZX+hsFGiFVE5OjpeXFxdStra227Ztg3OB68bUaDQw66qrq7dv305cCkqVt7d3fn5+Z6OjfrxEgVZIteVSFhYWK1eulEqlQBU9o9FoENQrKSlZt24dKV6QfX5+fpWVlVRZX+hsFGiFVGlp6dq1a7m6tkAgmDFjRlZWFiQdkQYfWZZNTEycOnUqNHqBQGBgYMDj8VauXKlQKKiyvtDZKNAKqfr6epFIRCwHhd69e+/duxdJLBRsQaG6unr37t3GxsYQfAjaWFhY7Nq1q10iarVaagHhH51qf8SE/vRfnzajQ6WO/7EFUlqtVqlUXr9+vUePHlxU8Xi8QYMGffvttwUFBTKZjGVZtVotlUqzs7MPHDgwePBgqoxYzaRJk27fvt3usIm3QQ+TSqWVlZVPnjxJTk5OTEy8d+9eTk7Os2fPFAoFt6ZKpeKqce22rL/ZoSjQAinMYlFRkZ+fH6EEDnQej9enT5/Vq1efOHEiLi4uNjb22LFjS5Ys6devH2IyqM/j8SwsLNatW1dbW9vuCOGJUKvVEokkNTU1KioqODjYz89vxowZkydP9vDwCAgICAkJiY6OfvLkCTxhLMvqIdUuMTvyzVYupVarZTLZDz/80KdPH6CEIn2Iz9jY2Dg5Ob377rvW1tYMwwgEAqFQaGBgQN7RMWPGXL16FQKOxkwyTqPRyOXyx48ff/PNN15eXjY2NvQggZJhmF69evn7+585c6a4uJh9fukdp0TM/4nCnyCl0WhKSkq2bdtmY2MDFgVUwYdJ3Iv0cUNDQ6hQPB6vV69eYWFhdXV1OnwFzAl4unXrlp+fX/fu3SlDBvl8BCm6379//6CgoPT0dLlcDg2M9LD/CbJ25k62QgpzplarMzMzAwICLC0tySFOM81FFQFLIBD07NkzKCiooKBApVIplUqu9qNWq1UqlVQqjYuLmzJlCvyi4G06rXE/8ng8Y2PjhQsXpqSkKBQK+CzUarU+E6vjg/VPkIL/SalUpqam/t///V+/fv0wzW25FE2/gYFB//79t27dmpOTAyc7l0shk51l2aSkJHd3d3A+IyOjV0IK/I/H4y1fvjwvLw8d01t/HR9Pzc3Nf4IU3OLQYEpKSkQi0aRJk3RsQAITmNPMmTMPHTpUXl5OTnZuvhT0qtLS0vXr15uZmQkEAm7oBk1ZWFjY2dl16dIFHyEKDQ0NhUIhn8/v2bPnd999J5FI0L6eS3V8VLVAittR0q+lUmlycvLu3btnzZo1aNAgApNQKBw0aND8+fNDQ0Pv3bsnk8kw39xGqMyybHR09NChQ0lQ0n4IBweH2bNnb9y4cc+ePYGBgTNnzkRqDfQz2AQMw8ycOTM5OVkPKSJpBy+0AylujzUajUwmy8rK2rhxI0GqW7dumzZtKi4uBpjA1bj6E7eFmpoaZB7T47AWR40adfjw4cLCQplMplQqGxsbnzx5Ehoa+s4773B1doZhTE1NIyMjGxsb9YKPS9gOW34ZpEgTqq+vP3DgAGHC3t7+q6++gtMIzs+XsJDk5GR3d3d6FoVhw4ZduHABijwhUqPRNDQ0HDx40M7OTqf+ihUr9KHoDoshnY69AlIwA3UgZWdnt2/fPoIC9i+gpk7rWq32zJkzEJrwRzAMY2lpuWPHDgryAI4EyvLycl9fXyMjIy6q3NzcEhMTycWl85Z2P75R5XZb+ItvQt8gq1ar1bIsK5VKa2pqKisr6+rqUKEtq8Z9+vsXd7vt614GKardLqRexwOpUqnCw8Ph1UTaMZ/Pd3FxuXz5MjXOLcA+EIlE5G4FsN55553Lly+3pSb3WZ2yRqPJycm5d+/e3bt3k5OT7969m5SUVFhYqFKpdGp2kI9arValUimeXwUFBTdv3vz++++/+uqrHTt2bN++PTo6GkJDpVJVVFQkJiYm/XElJiampaUhYeR1JuVtj/ftQkomk+3atcvMzAzbSrHZZvbs2Q8ePGh3YOBVYrHY2dmZy6V69+594cKFNzX3du/ePWPGjIkTJ06aNGnixIkTJkw4evQoN4m+3T78t24izFpZWXn69OlPP/3UycnJ2NgY2yS7dOmyePFiBM1kMtnFixfHjRs34Y9r/Pjxq1atgtHd4SDVrrBQq9WlpaUhISE0xz169Ni5c2djY2PbOdZpgSCFbAVAyt3dPTk5GTV16uPjuXPnnJyc6HUMw/Tp00csFrd93cunPyAgwMzMjJuu8+WXX9bV1b38qf/WtxqNpqKiIjQ01MHBAUiigJi5ufny5cvBpWQy2bFjx7jEYRhmypQppaWlHQFPf/JLwZ8EPgGlu6GhIS0t7ezZs//4xz8mT55MwzAzM3NzcwsLCxOLxY8fP25qaqI8TzxOjnilUhkeHm5ra4tsKrjjhw4d+sMPP3D1ejyODqhUqp07d3bt2pVexzDMkCFDrl69+qaTvWzZMuw3JFft3r17OxqkSENqamo6c+ZM165doSHAgQdsmZmZBQQEYPgymSwqKopLHECqrKzsTenzluq3CD5K1IQdJ5FI7t69u2fPnnnz5g0cOFBHWcY4TUxMhg0b9vHHH4tEIpLlyucXudE1Gs1PP/3k5OQESNGDq1atKi0t5Sr4eAThoGnTpumEgGbMmJGcnPymJACkuNTvmJBCGDQrK2vatGkMw8DNi/iBUCjs1avX1KlTw8LCMHy5XH78+HHuoBiGmTp1anl5+ZvS5y3V/xOkEKErKSmJioqaPXs2PNqYXZpjHo8nFAohwgARW1tbb2/vs2fPVldXowWKylVXV0dERAwePNjAwMDQ0JB2wQ8ePPibb76prKzkMkWWZZ8+fRocHIztzvRGhmHWr19fWlr6piT4H4KUXC6PjY01MTExMDAQ/nGZm5t/+OGHERERt27dysnJgdz/X4IU+FNmZuaWLVv69+9P6wCORzq5BQIeIoziygzDODo6ikSi/Px88B7wuV27dg0fPhxxGOAJS1AgEAwfPjwkJOT27dsFBQUVFRX5+fmxsbErV67s3bs3nbyAPnTr1u3EiRNyuVxH8Xolwt4IUhDWOuoabEwdS5NUFiq07QmZ9FQHd5qbm6lAZZZlGxsbjx07huWKlCFsyoXrhHIStVrta0KKaEUFvA4fdUaE/lOfdT5SCyigmg656FmtVtvCpWBuZGdnL1++3NLSkvBEBVIVASMuC6E6/fv337lzZ/bz6/Dhwx9++KGVlRU9iDCLoaGhkZERmJyVlZWbm9vy5cvXr1//2WefjRo1ysTEBHEbcDXoQAsWLHj06JHOGNrOYts7bwQpSvcjVHEVRO4ckNJJcOG+mijOrYbH4XPCQHCHsFJXV7dnzx7YxUhsNDU1XbRokVKpRB2lUol4/GtCitRTrHD0kF7HDe0TsiEx0EkaBcGoubkZPVer1egM9zwVLq1aBV9xcXFwcHCXLl3ahQuNFsKO8jmpMqDTv3//JUuWLFq0qG/fvlAzhUIhyTsKG1PwGKChRgidyO/j8/lDhw49f/58U1MTZojmmzuLLyq/PqSI1izL0itAwbZ5NSSsWZatra0tLS3NfH49efIkPz+/rq4OOICGpFKpaDEQjGC74S++ffbs2fbt27nDx443mkVYM0g7ex1dCsoxAVEHUsAZjRQJSAQptVrd0NBQWlqanZ2dkZHx+PHj3NzcyspKmUwGByw1Sy2gnyBjC6QkEklUVFSvXr0oWEvDo4KRkVG3bt2sra2xE4YrEMntRPIRbIZyVOzs7JydnXv27MlFFZmBOpIOQUCBQODg4CASiSoqKsg8pDG8CEbc+68PKZlMdv369YsXL165cuXSpUsXn18///xzZmYmDA4dqEml0kePHkVHRwcHB69evdr3+fXJJ5989tlnW7duPXXqVHp6ulQq1Wg0SqXy4cOHYrH4yh9XbGxsZmYm4CWVSu/fvy8Wi2NiYnx8fIjUfD7f0tLS19f38uXL6NXDhw/BFF+fS6lUqqampoyMDLFYjBHhr1gsvnv3bkNDAxETHBp4zc/Pv3z58t69e1evXr1o0SKf59fSpUvXr18fGRmZlJRUV1eH5Z2ZmXn16lW0efnyZbFY/PDhw4aGBgZO24SEhDFjxsB7RHwIMg55B97e3hs3bty3b19oaOiaNWvmzZs3ZMgQuHx06iPJDgoBn8+3srIaP378l19+eeHChTVr1tjZ2QFJpOCDY5HNDI7F4/EGDhwYFhZWVFQELk1rnQual5dfCSmSTTExMePHj3dycnJ2dnb64/L29k5KSiJyg7c3Nzfn5eUdPHhwwYIF77zzDoGACkjVX7BgAXJ+5HL5rl27HB0dnf+4xowZExERgZ5XVVUFBwc7Ojo6OTl1796dGmEYxsDAoEePHuiPq6vrjh078MhLIAVpRYNSKBS///67j4/P0KFD/xjT///v4eFx+vRpCoiBtcD7eObMmWXLlo0cOZJyjbhdsrW1nTlzpkgkysrKUqlUkZGREyZMQMvDhw8fOnTorl27ysrKGLVaXVlZuW3bNjxMu9ENnl89evTw8fE5ceJEbm6uQqEAM5dKpU+fPj1x4sSsWbNsbW1J7yH5Raxo2LBh69evv3HjhkQi0Wq1T5482blzp5OTE/AEPkeIhDDl8Xjm5uYTJ06MjIwsLi6G4Hg5dF707cshBRaiVCp/+eUX2BBEAYZhBg8eHB0dTdEb4Ill2V9//TUgIMDU1BSCnktxbhlr6fPPP8/Pz1+/fj0URFQwNzffuXMn+lxWVrZ48WLug+2W4ep8JaQADkhqpVJ5//79+fPnk8aC2bG3t9++fXtRURFGRJUfPnwYHBw8cODAdjvAvdmjRw9/f//ExMSQkBCdZbBu3bri4mKGZdmEhARKh0LiJVRpOzs7OoRTpVKRpoauK5XKzMzMdevWde/enTLQ8W4ej2dlZTVr1qwLFy5UV1dzhfSzZ8/EYvHatWuR3MdN7zQ0NOzbt6+7u3tISEhCQoJEIiGV+UWgefn9V0JKrVbfuHFj7NixXMcbn893cnKKjo6GjYlXgEeeOnVq9OjROBwQlj6X1twyNEgjI6N169YBNIaGhqjA3er4H4cU1jxOW120aBESaEkC9O7de8eOHQUFBaQOKpVKuVx+9epVDw8PCwsLUpG5Y9EpA5re3t4LFy7U8Ui3QKqhoeHw4cP0GHiGQCCwtbVdtWpVYWEhAMRNN4A2B/0mKytr0aJFbZesra3t7t27wdiQxAJLAU9VVVXdunUrMjIyKCgoMDBw5cqVgYGB27Zti4qKSk5OBk/GAtKxTV6OIZ1vXw6p5uZmJN6YmJiQe51hmEGDBp05c0YqlXL1p+bm5hs3bjg4OIAlw3tEKCHqUQE83sDAwMrKatCgQXgK3749SFFc+cmTJ2vWrIHWSwpGnz59tm7dmpubSwsVSnpKSsqcOXNo3knU0Fh0CtBbbGxsevbsaWxszP22BVKFhYVLly6lL0gYubq6pqSkkDFJ1grp9pDZLMvGxsY6OjrqdEUoFC5fvry2thYMlsQ8noJiqFarGxsba2pqqqurnz17Bn2WbFp6EWmROoh55ccXQQpjSUtL++ijj4yNjeGDBaocHBwiIiLkcjkELvW2uLgYW/UJUpgqhmG6d+8+ZcoUHx8ff3//Tz75ZObMmaRjCYVCEJbrwONCSiKRnDp1au3atStXrhw9ejTNAhIPx40bt+b5tWnTprNnzyLJ8UW6VFlZGXhPfn7+9u3b7ezsCPd8Pr9Xr17BwcG5ubmYDoxLo9EUFBSsX7/eysoKohmzj6ns2rXruHHj5s+f7+/v7+vr6+HhMXToUDgEYHVx1yF63gKp1NTU4cOHcwfD4/FwDNBrHm1QUVERGBjIbQFlLy+v3NzcV07826vwEkg9ffrU19cX/AlCis/n29vbh4eH19TUEN1JZIeGhhoZGYGIQqEQOQIMw3h5eUVERPz222/Z2dl5eXm5ublJSUknT5708/Ozs7NrS3SGYQApWmMSiaS2tragoGDDhg1cGnbt2nXLli3Pnj2re341NDRAULwIUiUlJSqVqrS0dO/evQMGDIA6izhHz549161bl5OTAyQRwZVK5Xfffcd1awNYXbp0mTRpUlhY2LVr1zIyMvLy8nJyclJSUmJiYtauXdunTx+KQurwkRZI3b59m6vew+gbMmRITEwMhk09aFuAdqVQKCIjI5EUBaIA7G5ubv9CYK7tW/7lOy+CVElJyZo1a6Bik0iysrL64osvKisrMXMAEzhlQUHBkCFDsOj5fD5tiF22bFlaWppMJsOxlMSPWZbNzc3dv3+/TtYXiMOFFPilWq2uqakJDg7WgdT27dtJ3yBp1S6kpkyZUlJSUl5eLhKJhgwZwsUTFJhHjx5BzHHds/n5+R9//DFEHr26S5cuXl5ecXFx2EJCsgLaTnFx8aFDh0aMGAEtrX1IXbp0iZpDgcfjubi4JCQkvCak1Gq1WCx+7733qB300tXV9datW/8yIP79B7mQAsPYu3dvUVFRcHAwWD3whK+CgoLKyspwuh/oSFLv8OHDJiYm0MdJ3vn4+JSVlcGjiL9AIRQalmXr6+v37dsHbYPLrkjwkavzdSAFvfslrs7MzMyjR48OHTqUWIihoaGlpeWCBQvS0tLwOJdLaTSaK1euvPfee3AKggsgAn3z5k14a7l4ojXW1NR0/Pjxd999VwdPDMO0cKkLFy4QFAhSUKReZ1JBl6tXr3JVAfSv40AKNhrDMFu3bt20aZOtrS1ATws0ICCgtLQUBgQWEv5iN4eHhwc5YwGOYcOGZWdng+KIVNDyQwG2RVVV1YIFC+BkIiJzIQXGptFo2uVSO3bsoE0i1H67XGrs2LEREREjR44ka9TQ0NDc3NzLy+v3338HLySDHdPa2Nh44MABc3Nz0p/gCzx27BhMEy4/w7N4EL0FGWlQKLRA6urVq9wvIPhGjhz5ogNYdHAGD/0PP/zg4ODAbYdhmLFjx965c0en/l/5kbgU/SaAq6urmZkZPpK99umnnyKBmLZKk0Gg0WhKS0vt7e11hnbw4MHm5maab51BgSZA1a1bt5CzRS0QpGCIoJG2kLK1td26dWvbV7SFFJ/Pt7Oze++998jJDDx9+OGHt27domR2nU6WlJSsWrWKmBO698knn+Tm5hL71HkEH2Gz37lzZ9y4cTQoFFoglZiYqLP5k8fj9e3b9+uvv263xbY3GxsbQ0NDdexJhmFmzJiRlpbWtv5fdkcHUmSnQN4BUn5+fnl5eXBVIHSFNU2dTEtLAwqJfKamphkZGdCfqBq3AI6Cuayurh45ciT8jWjhPwspghH8OJDOJiYmU6dOvXbtGo2I2z2U09LS5s+fT3yaYRgrK6s9e/bQoYe0rnSehQSsrKz09/fn+vNaBV9mZub06dOJXtD5jY2NfXx8amtrAVjiumid2DXempWV5e3tzW0BZWgbeAQtkGx+UXfJg0CS+yU1dYba9uOLIEU5bgzDfP3114hJk7NN541xcXFdunThKkODBg0iz1nbl3LH29zcLJVKcb4SOXX/s5CCVIXRSmvGyMjI19eXRDlXhFGH79696+7uDiDCw+no6Pjjjz/STOnQgR4EJBQKxY4dO3R+Uq+FS5WXl2/atIkLCCB3yJAh0dHRZGjoHFJNSZiNjY3ff/99W9FgaWm5ZcsWqVSKHgAiMDqwfKVSaXFx8f3792/cuBEbG3vz5s3U1NTy8nI6sgyCg6tR0qhes6ADKT6f3717d7iSKYvQ1dU1ISEBLll0UoeU58+fNzU15dJnwoQJtKhe2RO5XL527dq3x6XAAkxNTa2srOBfRVcdHBy+/vrrxsZGyKm2/UxISJg+fTogBbfZuHHj4uLi2tZsewes4eDBg7169eJSpgVScrn8/Pnz3C+gTpmYmLi5ucXFxUEocIU6omMqlaqhoeGnn35ycXHhbhlAU926ddu6dWt1dTU538noqKysvHLlSlBQkLe399SpU11cXJydnV1cXKZPn/7xxx/v3r377t27oAUBuu2oXucOQQpRJoZhli1bNmnSJHIfwBU5bdo0/PIbeQG4jYvFYh1IjR07lgwibs12y1KpdNGiRW8VUgzDDB061MfHhzxnmAJHR0c4SLnsgDqZlJT0wQcfcM2UUaNGXbp0iSq8qAA8sSz7xRdfdOvWjYucFkip1eqMjIz333+f+x3mwNzcfNq0aWfOnMG+RHoH1M+KioqoqChXV1eIc+7vE/F4PBMTEycnp02bNt25c6ehoQH9kMlkv//++/r160ePHm1ubo4VhlGRRWpjYzN9+vTQ0NCMjAz8eCkXzdSH1ykQpGBX83i8AwcOnD9/HifSGBgYGBkZodvr1q2rr6+HL0CHS927dw+bxog+3bp1w96BV3ZMq9XW1dXhZzLfnuDDdoZLly7NmjWLOonTlGbNmnX//v12BV9qairOJCeLr0+fPt99993rDEqr1dbW1i5ZsqR9XQr5VkePHiUPCmYX8lUoFA4bNmzdunUxMTGpqal5eXnZ2dkpKSknTpxYvHgxHZ4B/gnGSwl3fD7f2trazc1tz549jx49qquri46Onjx5MlI9MXhKjyFaoNC9e3cfH5/ffvsNxy68vqDhQo0gBb7LMMzevXsrKyt3795tY2ODUDcAbWtre+rUKZzmyIWURqMpKirCqX/cHp47d+7l6jn5S+/fv29hYYFNCmjhP65LwZmUn5//008/DR8+HIPFXNja2q5Zs6a8vLythpSXl7d06VKiv0AgMDU13bBhAwmWF5mKMF8ePnw4ZcoULk1a1XMIpqysLCRCABBUFcAyNTV1dHT08PCYP3/+3LlzP/jgg0GDBulkDMOtTEFK4qgCgcDe3t7T0zMwMNDV1RUMg8vS6F3cAvicu7v7b7/9RlFnHVuMi552ywQpahk7ZCoqKpCgQokfDMM4Ozvfvn1boVBwIYWTRdFtaoRhmEmTJtXX11Pqi87bkXWNjHIcT0I+egrI4BEoms3Nzf+OE4H28VVWVu7fvx95jjD9BAJB7969IyIi6PeniWPV19dv27YNvAD6pUAgmDBhQlxc3IssFfRZo9FIpdK9e/e2VaBbBB8YgFQqvXHjBsQfySBINPzmAgEI32IpIOAKWqNzQqGwb9++/fv3BztFvi9lesCLj4/cGWpbRrhbKBR+8sknGRkZUJxftG50ZpQ+vghSGo3m7t27I0eOJH0WBt20adOysrK4nB/E2bFjB5fDg72JRKKXQAourtjYWHt7e+6hpm8JUlOnTq2oqNBoNE+ePPn000/Js4AVPnbs2NjYWAoMgD4sy54+fdre3p4kjEAgsLS0XLVq1dOnT9u1VAhSt27dev/995Hcy527FkjBMYpTU3788UeKqwAT9FOzxL1wn9DNbZfH440ePfrbb789fPjwBx98YGlpSc5cwiXtkKGu2Nra9u/fH9KBbiJKZWBgYGtre+DAgWfPnr1kkIQhncKLIMWyrFwuj4qKsra2Js4PXWfz5s1wnVD2PvCHAA64Gs5Sc3BwiIqKampq0nkp/CByufzSpUsTJ06k8Mhb1aWmTZtWUVGh1WoVCsX169cnTZpEK9zQ0NDMzMzf359WJrHhtLQ0d3d3rF6sLj6fjxwY5FRRTRqjWq2Oj49fsGAB5YvTlLUKPtQGB66trT127NioUaNAOyxHkg5c7kUQQQwVu4UmTpx49uxZyfMrPj4+JCTEyckJmj5t4oMIgOAbM2bM5s2bDx8+HB0dLRKJVqxYwT3jBaKTYZgxY8bcuXOnXXOMhtpu4UWQArerq6tbsWKFqakphoku2dnZ/fOf/4T/ghS4pqamhQsXYsiUzobMqsDAwMTExKqqKqQoqtXq+vr61NTUL7/8kqQ8HnmrkMLWUEyiRCI5efLkwIEDuapIjx49tm3bhnMTYMJrNBqJRPLFF19gfzNXD+7Tp8+yZcsuXbpUUlJCnk+JRPL48eMjR47MmDHDysoKgyJIAFgtXAqTQZrN4lkAAA2JSURBVBsqqqqqLly4MGfOHIg24orch0kgUuSrW7duvr6+V69eRSomjP/q6uqff/558eLF/fr1ox6jQR6PN3PmzMuXL1dXVyM5SSaTFRUVnThxwsXFRSe30NjYODw8HN7FtuumXTDh5osgRY9kZWW5u7sbGxtjviH+RowYkZqaClRBy9ZqtXfv3oVVQWFjEFEgEEydOtXf33/Tpk07d+4MCgpaunSph4cH7UMnNv/XQAqev5KSks2bN3fp0gXZE5AkAwYMiIyMxO+WwVml0WhSUlJgJ2K6IRzwu8MuLi4ff/zx6tWrt27dunnz5mXLlnl6eg4YMADc4bUgpVAo5HK5UqmUyWT37t3btm3b+PHjwaK4eAIpyfK3sLCYOnVqeHg4DpRGBAB/WZZVKpXnz593dnbGiqE9DmPHjo2Li8OmZHJparVaqVR6+vTpwYMHQ7wSU128eDHCtP9ZSGk0mmvXrvXp0wcsirxrs2fPLisro8QSWDBhYWHEvKljZIUYGxubmZlRVAryDngyMTGBcMFTb8nig1kHmiuVypSUFE9PT4gI8uu6uLhcunQJCx6jk0ql0dHRZCcCKNCbwS8MDQ1NTU2NjIxAHGI0fD4fe6OJFO0IPvSG6CiRSG7evBkSEuLn5zd69GiuIc3j8WxsbCZOnBgQEHDw4MH4+HjsVoCkIJcmtJ/jx4/jdxzAqAwMDLp3775///7GxkZUwFO0bmpqahYvXow9otRdRKD/NfWcZh1OBO4xG2q1Wi6Xh4aGIu0awQ3Aa9OmTTKZDGBChqdEIlm9ejU2hIGfoeW2Ri5FqYVCoZubG+Ie0MD4fD4gRVY9wgP/psXHFXxoUCaTicXiUaNGkfgTCAQmJibz589PS0vjhjGePXt2+PBhR0dHCBAgCajCMGl5Q0MAfxk9erSbmxslyaHOnwQfBde4bECr1TY1NWVlZYnFYu4PgVhbWy9evPjWrVt5eXnQT7nJD5REAVt6//790ILxVh6PN378+OvXr4OmeB3RF/CKjIzUSTUcMGDAxYsX39SJwD0MCNTROWYD1K+oqPD19YWLHHyFYRgbG5sff/wRm/hgK7EsW1paum3bNqwQhmGAEkAK6xt/0YhAIJg8efK1a9ewQ4ZMZoIU3o7ZfR1IgUptMxEYhoF6zqWPRqOprq4ODw/v3r07KRI8Hg/JolVVVdzKVVVVR48edXV1FQqF4EMYAqYMpOOupeHDh584cWLLli10BCZwpgsp0jCoQDOtcwqevb39gQMHXmejgUwm2717N1lz6OKsWbPu3btHb+EWAMd2jyz7+eefyafCfeQl5aVLl3ITVtvlUhhFSkrKqFGjuNYrwzCjRo3CQf6Q43K5nGXZurq606dP+/r6du3alZYyMUIUBAJB165dAwICrl+/3tTUhBgfcVxsuoIqjTgEy7JtIWVjY7NlyxZEHTBGPNLuYUDEpYga8C3l5OQEBATQq1FwcHCIjIzk2qrIAbx06dLKlSuHDRuGwA6xKHociPT09IyOjq6pqQkNDdUJyAQGBhYWFrbsNqaucAs0YB1I9erVa9++fSDxy6dZoVCEhYURpNC5adOmxcfHc1+EMllYMTExjo6ONBKGYfr27fumR5ZpNJrr168fPnxYJBIdOnRIJBKFh4ffu3dPLpfTq+E9Aiv65Zdfvv32W1QLDw/HIw8fPiTtBNUg1nNzc2NiYoKDg+fNmzd69OjevXtbW1vb2tqOGDHCy8srKCjo9OnThYWF2NJ08+bNcM4VGRkZHx8PrGDiNRpNU1NTQkIC1RKJRN99993t27e5u3QAKaVSmZ6ezq0ZERFx7tw50j2ImCzLYvdVREQEt75IJLpy5Qr3NEBoV0qlsqSkJDY2NjQ01M/Pb+LEiX379rW2tu7ateu77777wQcfBAYGHj16ND09vampSaVSJSUlHTlyhFoODw//9ddfJRLJqyGlUqlqa2u5JwoDUnBqvxxSGo3m22+/xeE+JInfeeedkydPgu0TZaFXgcSbNm3SOepj2LBh165dIyi8TgFiV6FQyGQyuVwuk8lg7HAlOyl/AIpCoZD+cVEZE4ne4i/ezrJsZWVlenr67du3L1y4EBMTc/bs2Zs3b6alpVVUVMALj/blcvkfrbb8x7ckBFDAz6KgBvqM38+hwVL9tjURttJRP0BbOOGoA7I/Lm4sGTVBGRz08OTJk/j4eOysP3fu3NWrV1NSUgoLC3E8HYEbVKXGEU1/BaQwx3V1dVxI2dnZ7dmzR6FQcNcQjVynACkGkwd/jY2NAwICCgsLsTiQJ0NmQWpqqpubG5dFMQzj6emZmpqq03LH+Ygpefnq6ji9ff2eEIi56/CVj78CUiBWW8F34MAB6JWvpOPjx4+RoEfpudhWtnfvXhjqxK5Ylk1PT1+xYgV+Z4uLqi1btlRWVnI1ylcOTF/hv0WBV0BKLpc/ffo0Ojray8uL5tjMzMzLy0ssFufn578ozkXjkUqlYWFh5CdE5qFAIBg4cOCKFSvOnz//6NGjgoKCBw8eHDt2bN68edgOT+Yhzn49e/YsVLc3Wi7UB33hr6SALqSI1+GYwwMHDnh4eDg5OVGQC0amlZWVs7PzRx99dOjQocLCQq4vqm0aYXJysoeHB/nNKVxoYWHh5OQ0ffr0WbNmTZkyZeDAgSYmJmS4kn922bJlT58+RbN6SP2V4PjX3tU+pJqamn755Ze5c+f27t2b65AAoyJwGBgY9OvXb+nSpb///jtUK6VSiaRb6o1Go2lsbDx69OigQYPwIPl+iO21LVD0fvz48deuXaMfetRDigjbYQu6kGpubpZIJOfOnRs9ejSceO0mbZL8MjAwsLS09PT0xH4MaNykYME0YFm2qKhox44d9vb25NFvCyPuHXAyZ2fnkydP1tfXg0W9qfe8wxL9792xFkiRvFMoFLGxsc7OzggPkRMPp+PBSQqQcVFlbm4+Z84cyhfgQgoKvlqtzsvLCwkJ4brFIeO4SKIyj8cbNWrUsWPHoJWTta/nUh0fji2Qwg4FjUaTmpo6e/ZsTC0lLXE9+tyvEJQGMiwsLJYvX56fnw8PU9uRa7Xa4uLi48ePT5s2jY55Rcs62LK0tJw/f75YLK6pqYH3q914UdtX6O90BAq0QoplWYlEsn//fsre5x5x3qNHj3nz5m3YsGHt2rUeHh4kwhBkBc7s7OwOHjyo46CjQcLFJZFIEhIS9u3bN2vWrL59+xK2GIYxNzd/9913vb29IyMjcTY/3HRcpxy1pi90WAq0Cj64heiHPSh8aGVl5eXldf78+ezs7KqqqvLy8oyMjLNnz3L3Y2CvC4/H8/T0fPz4cbujpZQsYPfx48e//PLL8ePHDx06FBERcejQodOnT//66685OTnYq0mREBKj7Tarv9nRKNAKKZlM9uOPP2IvFLgOj8czMzObO3euTmgMGQq//vorF1XQuoYMGXL69Ol2Bwl1TSemIZVKGxoaJBJJQ0MDogrcDF1uoKDdNvU3OyAFWiDV3NxcXV3N/TkroGrYsGE//fQTKTQYAGZaJpOdOXNmwIAB5Eni8/nGxsbBwcHcHQE6Y+bGoXS+oo+vU4cq6wsdjQKtkCoqKvrss8+AJPw1Njb29vYuLy+HwUVdR2Ia9pQuXLiQdgQgHSIgIIAb5aan9IVOQoFWSOXk5MydO5eSZRmGsba23rx5MxLQuNY7IMWybHl5eVBQENfdwOPxFi5cWFRU1EnIpx9mWwq0Qio7O9vT0xOKNriUjY3N5s2bkSHO1ZGhaKtUqsrKyq1bt+q41xcuXFhYWNj2Tfo7nYQCrZDKz8/39/fnCj4jIyMfH5/6+nqE8IgigBROpFy2bBkxNihVixcvfvbsGVXWFzobBVoh1fZUICTL3r59W0eXgodJpVKJxWI6kJmAFRgY+Mr0hM5G5U413lZINTQ0HDlyBFyKInHm5ub+/v4FBQVcXQqRu4yMDD8/PwRqkIXNMEy/fv2OHDnSqSioH6wOBVoghYBMUlIS9gcjFGNkZGRsbGxtbb1kyZIHDx6QF7upqenOnTtLlizh7rlBoNfd3f3BgwdcxUvnffqPf3sKtEAKOxcqKys///xzqNuICmNbo6Wl5dixY/39/f/xj38EBQUtWLBg5MiROE+HduTweLxu3bqFhIRgW/DfnnD6Ab6IAq1cCueDxcfHT548mXINhEIh/cinUCi0srKysLDA0Svc0w0gLmfPnp2eng5H6Ivep7//t6dAK6SwN6GpqSk6Orp///4CgQBgArviWoKUQcU9LMrFxeXChQvIv9MLvr89bl4ywFbBBwVcq9XW1NRERETgp0Kgd+ugCpCikzN4PN6IESOio6PxExHcKN5LXqz/6u9KgRZI0fBIqTpx4gROBcLZEtwkFuJSKEycOPHixYv4fVLa7kIN6gudjQLtQAq/e1FfXx8fH799+3adjb/kZWAYZuDAgV988cW9e/fo6HA6OaOz0VE/XqKALqS4+ZMsy1ZVVSUmJh45cmTDhg2enp5jx44dP3783LlzN27cGBUVlZSUhB8FRe4A9y+9QF/obBRoB1JEArg0VSqVRCIpKyvLzs5OT09/9OhRTk5OWVkZjp6myvqCngKgwCsgRXlzlFFOZ2/oZZweQ+1S4P8BWikQhdsM/YgAAAAASUVORK5CYII=;imageBorder=#000000;" vertex="1" parent="1">
          <mxGeometry x="600" y="825" width="96.85" height="45" as="geometry" />
        </mxCell>
        <mxCell id="YhcMtgBvw5Yq8l-BeSyp-55" value="" style="edgeStyle=elbowEdgeStyle;elbow=vertical;endArrow=classic;html=1;exitX=0.158;exitY=1.05;exitDx=0;exitDy=0;exitPerimeter=0;" edge="1" parent="1" source="YhcMtgBvw5Yq8l-BeSyp-40">
          <mxGeometry width="50" height="50" relative="1" as="geometry">
            <mxPoint x="620" y="780" as="sourcePoint" />
            <mxPoint x="370" y="850" as="targetPoint" />
          </mxGeometry>
        </mxCell>
        <mxCell id="YhcMtgBvw5Yq8l-BeSyp-56" value="" style="edgeStyle=elbowEdgeStyle;elbow=vertical;endArrow=classic;html=1;exitX=0.75;exitY=1;exitDx=0;exitDy=0;" edge="1" parent="1" source="YhcMtgBvw5Yq8l-BeSyp-40">
          <mxGeometry width="50" height="50" relative="1" as="geometry">
            <mxPoint x="540" y="810" as="sourcePoint" />
            <mxPoint x="640" y="850" as="targetPoint" />
            <Array as="points">
              <mxPoint x="570" y="850" />
            </Array>
          </mxGeometry>
        </mxCell>
        <mxCell id="YhcMtgBvw5Yq8l-BeSyp-57" value="" style="endArrow=classic;html=1;exitX=0.442;exitY=0.983;exitDx=0;exitDy=0;exitPerimeter=0;" edge="1" parent="1" source="YhcMtgBvw5Yq8l-BeSyp-40">
          <mxGeometry width="50" height="50" relative="1" as="geometry">
            <mxPoint x="640" y="840" as="sourcePoint" />
            <mxPoint x="463" y="860" as="targetPoint" />
          </mxGeometry>
        </mxCell>
        <mxCell id="YhcMtgBvw5Yq8l-BeSyp-58" value="CDUI" style="rounded=0;whiteSpace=wrap;html=1;align=center;" vertex="1" parent="1">
          <mxGeometry x="1090" y="50" width="120" height="30" as="geometry" />
        </mxCell>
        <mxCell id="YhcMtgBvw5Yq8l-BeSyp-60" value="DSD" style="rounded=0;whiteSpace=wrap;html=1;align=center;" vertex="1" parent="1">
          <mxGeometry x="1250" y="50" width="120" height="30" as="geometry" />
        </mxCell>
        <mxCell id="YhcMtgBvw5Yq8l-BeSyp-61" value="TXN - CORE" style="rounded=0;whiteSpace=wrap;html=1;align=center;" vertex="1" parent="1">
          <mxGeometry x="1400" y="50" width="120" height="30" as="geometry" />
        </mxCell>
        <mxCell id="YhcMtgBvw5Yq8l-BeSyp-62" value="NSLDS - Solution Data" style="rounded=0;whiteSpace=wrap;html=1;align=center;" vertex="1" parent="1">
          <mxGeometry x="1560" y="50" width="120" height="30" as="geometry" />
        </mxCell>
        <mxCell id="YhcMtgBvw5Yq8l-BeSyp-63" value="Solution Store Service" style="rounded=0;whiteSpace=wrap;html=1;align=center;" vertex="1" parent="1">
          <mxGeometry x="1720" width="610" height="30" as="geometry" />
        </mxCell>
        <mxCell id="YhcMtgBvw5Yq8l-BeSyp-64" value="&lt;p&gt;MongoDB Repo Impl&lt;/p&gt;" style="rounded=0;whiteSpace=wrap;html=1;align=center;" vertex="1" parent="1">
          <mxGeometry x="1900" y="50" width="120" height="30" as="geometry" />
        </mxCell>
        <mxCell id="YhcMtgBvw5Yq8l-BeSyp-65" value="&lt;p&gt;Redis Repo Impl&lt;/p&gt;" style="rounded=0;whiteSpace=wrap;html=1;align=center;" vertex="1" parent="1">
          <mxGeometry x="2058" y="50" width="120" height="30" as="geometry" />
        </mxCell>
        <mxCell id="YhcMtgBvw5Yq8l-BeSyp-66" value="&lt;p&gt;Kafka Repo Impl&lt;/p&gt;" style="rounded=0;whiteSpace=wrap;html=1;align=center;" vertex="1" parent="1">
          <mxGeometry x="2220" y="50" width="120" height="30" as="geometry" />
        </mxCell>
        <mxCell id="YhcMtgBvw5Yq8l-BeSyp-68" value="CDUI" style="rounded=0;whiteSpace=wrap;html=1;align=center;" vertex="1" parent="1">
          <mxGeometry x="1090" y="840" width="120" height="30" as="geometry" />
        </mxCell>
        <mxCell id="YhcMtgBvw5Yq8l-BeSyp-69" value="DSD" style="rounded=0;whiteSpace=wrap;html=1;align=center;" vertex="1" parent="1">
          <mxGeometry x="1250" y="840" width="120" height="30" as="geometry" />
        </mxCell>
        <mxCell id="YhcMtgBvw5Yq8l-BeSyp-70" value="TXN - CORE" style="rounded=0;whiteSpace=wrap;html=1;align=center;" vertex="1" parent="1">
          <mxGeometry x="1400" y="840" width="120" height="30" as="geometry" />
        </mxCell>
        <mxCell id="YhcMtgBvw5Yq8l-BeSyp-71" value="NSLDS - Solution Data" style="rounded=0;whiteSpace=wrap;html=1;align=center;" vertex="1" parent="1">
          <mxGeometry x="1560" y="840" width="120" height="30" as="geometry" />
        </mxCell>
        <mxCell id="YhcMtgBvw5Yq8l-BeSyp-72" value="Solution Store Service" style="rounded=0;whiteSpace=wrap;html=1;align=center;" vertex="1" parent="1">
          <mxGeometry x="1720" y="885" width="630" height="30" as="geometry" />
        </mxCell>
        <mxCell id="YhcMtgBvw5Yq8l-BeSyp-73" value="&lt;p&gt;MongoDB Repo Impl&lt;/p&gt;" style="rounded=0;whiteSpace=wrap;html=1;align=center;" vertex="1" parent="1">
          <mxGeometry x="1900" y="840" width="120" height="30" as="geometry" />
        </mxCell>
        <mxCell id="YhcMtgBvw5Yq8l-BeSyp-74" value="&lt;p&gt;Redis Repo Impl&lt;/p&gt;" style="rounded=0;whiteSpace=wrap;html=1;align=center;" vertex="1" parent="1">
          <mxGeometry x="2058" y="840" width="120" height="30" as="geometry" />
        </mxCell>
        <mxCell id="YhcMtgBvw5Yq8l-BeSyp-75" value="&lt;p&gt;Kafka Repo Impl&lt;/p&gt;" style="rounded=0;whiteSpace=wrap;html=1;align=center;" vertex="1" parent="1">
          <mxGeometry x="2230" y="840" width="120" height="30" as="geometry" />
        </mxCell>
        <mxCell id="YhcMtgBvw5Yq8l-BeSyp-79" value="" style="endArrow=none;html=1;entryX=0.5;entryY=1;entryDx=0;entryDy=0;exitX=0.5;exitY=0;exitDx=0;exitDy=0;" edge="1" parent="1" source="YhcMtgBvw5Yq8l-BeSyp-68" target="YhcMtgBvw5Yq8l-BeSyp-58">
          <mxGeometry width="50" height="50" relative="1" as="geometry">
            <mxPoint x="1120" y="180" as="sourcePoint" />
            <mxPoint x="1170" y="130" as="targetPoint" />
          </mxGeometry>
        </mxCell>
        <mxCell id="YhcMtgBvw5Yq8l-BeSyp-80" value="" style="endArrow=none;html=1;entryX=0.5;entryY=1;entryDx=0;entryDy=0;exitX=0.5;exitY=0;exitDx=0;exitDy=0;" edge="1" parent="1" source="YhcMtgBvw5Yq8l-BeSyp-69">
          <mxGeometry width="50" height="50" relative="1" as="geometry">
            <mxPoint x="1309.5" y="690" as="sourcePoint" />
            <mxPoint x="1309.5" y="80" as="targetPoint" />
          </mxGeometry>
        </mxCell>
        <mxCell id="YhcMtgBvw5Yq8l-BeSyp-81" value="" style="endArrow=none;html=1;entryX=0.5;entryY=1;entryDx=0;entryDy=0;exitX=0.5;exitY=0;exitDx=0;exitDy=0;" edge="1" parent="1" source="YhcMtgBvw5Yq8l-BeSyp-70">
          <mxGeometry width="50" height="50" relative="1" as="geometry">
            <mxPoint x="1459.5" y="690" as="sourcePoint" />
            <mxPoint x="1459.5" y="80" as="targetPoint" />
          </mxGeometry>
        </mxCell>
        <mxCell id="YhcMtgBvw5Yq8l-BeSyp-82" value="" style="endArrow=none;html=1;entryX=0.5;entryY=1;entryDx=0;entryDy=0;exitX=0.5;exitY=0;exitDx=0;exitDy=0;" edge="1" parent="1" source="YhcMtgBvw5Yq8l-BeSyp-71">
          <mxGeometry width="50" height="50" relative="1" as="geometry">
            <mxPoint x="1620" y="830" as="sourcePoint" />
            <mxPoint x="1619.5" y="80" as="targetPoint" />
          </mxGeometry>
        </mxCell>
        <mxCell id="YhcMtgBvw5Yq8l-BeSyp-83" value="" style="endArrow=none;html=1;entryX=0.101;entryY=1.108;entryDx=0;entryDy=0;entryPerimeter=0;" edge="1" parent="1" target="YhcMtgBvw5Yq8l-BeSyp-63">
          <mxGeometry width="50" height="50" relative="1" as="geometry">
            <mxPoint x="1782" y="885" as="sourcePoint" />
            <mxPoint x="1784.5" y="80" as="targetPoint" />
          </mxGeometry>
        </mxCell>
        <mxCell id="YhcMtgBvw5Yq8l-BeSyp-84" value="" style="endArrow=none;html=1;entryX=0.5;entryY=1;entryDx=0;entryDy=0;exitX=0.5;exitY=0;exitDx=0;exitDy=0;" edge="1" parent="1" source="YhcMtgBvw5Yq8l-BeSyp-73">
          <mxGeometry width="50" height="50" relative="1" as="geometry">
            <mxPoint x="1959.5" y="690" as="sourcePoint" />
            <mxPoint x="1959.5" y="80" as="targetPoint" />
          </mxGeometry>
        </mxCell>
        <mxCell id="YhcMtgBvw5Yq8l-BeSyp-85" value="" style="endArrow=none;html=1;entryX=0.5;entryY=1;entryDx=0;entryDy=0;exitX=0.5;exitY=0;exitDx=0;exitDy=0;" edge="1" parent="1" source="YhcMtgBvw5Yq8l-BeSyp-74">
          <mxGeometry width="50" height="50" relative="1" as="geometry">
            <mxPoint x="2117.5" y="690" as="sourcePoint" />
            <mxPoint x="2117.5" y="80" as="targetPoint" />
          </mxGeometry>
        </mxCell>
        <mxCell id="YhcMtgBvw5Yq8l-BeSyp-86" value="" style="endArrow=none;html=1;entryX=0.5;entryY=1;entryDx=0;entryDy=0;" edge="1" parent="1" source="YhcMtgBvw5Yq8l-BeSyp-75">
          <mxGeometry width="50" height="50" relative="1" as="geometry">
            <mxPoint x="2290" y="690" as="sourcePoint" />
            <mxPoint x="2290" y="80" as="targetPoint" />
          </mxGeometry>
        </mxCell>
        <mxCell id="YhcMtgBvw5Yq8l-BeSyp-87" value="" style="endArrow=classic;html=1;" edge="1" parent="1">
          <mxGeometry width="50" height="50" relative="1" as="geometry">
            <mxPoint x="1150" y="130" as="sourcePoint" />
            <mxPoint x="1310" y="130" as="targetPoint" />
          </mxGeometry>
        </mxCell>
        <mxCell id="YhcMtgBvw5Yq8l-BeSyp-88" value="" style="endArrow=classic;html=1;" edge="1" parent="1">
          <mxGeometry width="50" height="50" relative="1" as="geometry">
            <mxPoint x="1310" y="413" as="sourcePoint" />
            <mxPoint x="1150" y="413" as="targetPoint" />
          </mxGeometry>
        </mxCell>
        <mxCell id="YhcMtgBvw5Yq8l-BeSyp-89" value="Save BET" style="text;html=1;strokeColor=none;fillColor=none;align=center;verticalAlign=middle;whiteSpace=wrap;rounded=0;" vertex="1" parent="1">
          <mxGeometry x="1200" y="110" width="60" height="20" as="geometry" />
        </mxCell>
        <mxCell id="YhcMtgBvw5Yq8l-BeSyp-90" value="Return BET" style="text;html=1;strokeColor=none;fillColor=none;align=center;verticalAlign=middle;whiteSpace=wrap;rounded=0;" vertex="1" parent="1">
          <mxGeometry x="1200" y="393" width="70" height="20" as="geometry" />
        </mxCell>
        <mxCell id="YhcMtgBvw5Yq8l-BeSyp-91" value="" style="endArrow=classic;html=1;" edge="1" parent="1">
          <mxGeometry width="50" height="50" relative="1" as="geometry">
            <mxPoint x="1310" y="149" as="sourcePoint" />
            <mxPoint x="1460" y="149" as="targetPoint" />
          </mxGeometry>
        </mxCell>
        <mxCell id="YhcMtgBvw5Yq8l-BeSyp-92" value="" style="endArrow=classic;html=1;" edge="1" parent="1">
          <mxGeometry width="50" height="50" relative="1" as="geometry">
            <mxPoint x="1460" y="382" as="sourcePoint" />
            <mxPoint x="1310" y="382" as="targetPoint" />
          </mxGeometry>
        </mxCell>
        <mxCell id="YhcMtgBvw5Yq8l-BeSyp-97" value="" style="endArrow=classic;html=1;" edge="1" parent="1">
          <mxGeometry width="50" height="50" relative="1" as="geometry">
            <mxPoint x="1460" y="166" as="sourcePoint" />
            <mxPoint x="1610" y="166" as="targetPoint" />
          </mxGeometry>
        </mxCell>
        <mxCell id="YhcMtgBvw5Yq8l-BeSyp-99" value="" style="endArrow=classic;html=1;" edge="1" parent="1">
          <mxGeometry width="50" height="50" relative="1" as="geometry">
            <mxPoint x="1610" y="353" as="sourcePoint" />
            <mxPoint x="1460" y="353" as="targetPoint" />
          </mxGeometry>
        </mxCell>
        <mxCell id="YhcMtgBvw5Yq8l-BeSyp-101" value="" style="endArrow=classic;html=1;" edge="1" parent="1">
          <mxGeometry width="50" height="50" relative="1" as="geometry">
            <mxPoint x="1620" y="184" as="sourcePoint" />
            <mxPoint x="1780" y="184" as="targetPoint" />
          </mxGeometry>
        </mxCell>
        <mxCell id="YhcMtgBvw5Yq8l-BeSyp-102" value="" style="endArrow=classic;html=1;" edge="1" parent="1">
          <mxGeometry width="50" height="50" relative="1" as="geometry">
            <mxPoint x="1780" y="333.5" as="sourcePoint" />
            <mxPoint x="1620" y="333" as="targetPoint" />
          </mxGeometry>
        </mxCell>
        <mxCell id="YhcMtgBvw5Yq8l-BeSyp-104" value="" style="endArrow=classic;html=1;" edge="1" parent="1">
          <mxGeometry width="50" height="50" relative="1" as="geometry">
            <mxPoint x="1790" y="208" as="sourcePoint" />
            <mxPoint x="1960" y="208" as="targetPoint" />
          </mxGeometry>
        </mxCell>
        <mxCell id="YhcMtgBvw5Yq8l-BeSyp-105" value="" style="endArrow=classic;html=1;" edge="1" parent="1">
          <mxGeometry width="50" height="50" relative="1" as="geometry">
            <mxPoint x="1960" y="313" as="sourcePoint" />
            <mxPoint x="1780" y="313" as="targetPoint" />
          </mxGeometry>
        </mxCell>
        <mxCell id="YhcMtgBvw5Yq8l-BeSyp-106" value="" style="endArrow=classic;html=1;dashed=1;" edge="1" parent="1">
          <mxGeometry width="50" height="50" relative="1" as="geometry">
            <mxPoint x="1790" y="246" as="sourcePoint" />
            <mxPoint x="2110" y="246" as="targetPoint" />
          </mxGeometry>
        </mxCell>
        <mxCell id="YhcMtgBvw5Yq8l-BeSyp-107" value="" style="endArrow=classic;html=1;dashed=1;" edge="1" parent="1">
          <mxGeometry width="50" height="50" relative="1" as="geometry">
            <mxPoint x="1790" y="290" as="sourcePoint" />
            <mxPoint x="2290" y="290" as="targetPoint" />
          </mxGeometry>
        </mxCell>
        <mxCell id="YhcMtgBvw5Yq8l-BeSyp-108" value="Async Call to kafka" style="text;html=1;strokeColor=none;fillColor=none;align=center;verticalAlign=middle;whiteSpace=wrap;rounded=0;" vertex="1" parent="1">
          <mxGeometry x="2130" y="270" width="120" height="20" as="geometry" />
        </mxCell>
        <mxCell id="YhcMtgBvw5Yq8l-BeSyp-109" value="Async Call to redis" style="text;html=1;strokeColor=none;fillColor=none;align=center;verticalAlign=middle;whiteSpace=wrap;rounded=0;" vertex="1" parent="1">
          <mxGeometry x="1970" y="220" width="120" height="20" as="geometry" />
        </mxCell>
        <mxCell id="YhcMtgBvw5Yq8l-BeSyp-110" value="" style="endArrow=classic;html=1;" edge="1" parent="1">
          <mxGeometry width="50" height="50" relative="1" as="geometry">
            <mxPoint x="1150" y="512.5" as="sourcePoint" />
            <mxPoint x="1310" y="512.5" as="targetPoint" />
          </mxGeometry>
        </mxCell>
        <mxCell id="YhcMtgBvw5Yq8l-BeSyp-111" value="Get By Id BET" style="text;html=1;strokeColor=none;fillColor=none;align=center;verticalAlign=middle;whiteSpace=wrap;rounded=0;" vertex="1" parent="1">
          <mxGeometry x="1200" y="492.5" width="80" height="20" as="geometry" />
        </mxCell>
        <mxCell id="YhcMtgBvw5Yq8l-BeSyp-112" value="" style="endArrow=classic;html=1;" edge="1" parent="1">
          <mxGeometry width="50" height="50" relative="1" as="geometry">
            <mxPoint x="1310" y="780" as="sourcePoint" />
            <mxPoint x="1150" y="780" as="targetPoint" />
          </mxGeometry>
        </mxCell>
        <mxCell id="YhcMtgBvw5Yq8l-BeSyp-113" value="Return BET" style="text;html=1;strokeColor=none;fillColor=none;align=center;verticalAlign=middle;whiteSpace=wrap;rounded=0;" vertex="1" parent="1">
          <mxGeometry x="1200" y="760" width="70" height="20" as="geometry" />
        </mxCell>
        <mxCell id="YhcMtgBvw5Yq8l-BeSyp-115" value="" style="endArrow=classic;html=1;" edge="1" parent="1">
          <mxGeometry width="50" height="50" relative="1" as="geometry">
            <mxPoint x="1310" y="534" as="sourcePoint" />
            <mxPoint x="1460" y="534" as="targetPoint" />
          </mxGeometry>
        </mxCell>
        <mxCell id="YhcMtgBvw5Yq8l-BeSyp-116" value="" style="endArrow=classic;html=1;" edge="1" parent="1">
          <mxGeometry width="50" height="50" relative="1" as="geometry">
            <mxPoint x="1460" y="560" as="sourcePoint" />
            <mxPoint x="1610" y="560" as="targetPoint" />
          </mxGeometry>
        </mxCell>
        <mxCell id="YhcMtgBvw5Yq8l-BeSyp-117" value="" style="endArrow=classic;html=1;" edge="1" parent="1">
          <mxGeometry width="50" height="50" relative="1" as="geometry">
            <mxPoint x="1620" y="584" as="sourcePoint" />
            <mxPoint x="1770" y="584" as="targetPoint" />
          </mxGeometry>
        </mxCell>
        <mxCell id="YhcMtgBvw5Yq8l-BeSyp-118" value="" style="endArrow=classic;html=1;" edge="1" parent="1">
          <mxGeometry width="50" height="50" relative="1" as="geometry">
            <mxPoint x="1790" y="605" as="sourcePoint" />
            <mxPoint x="2120" y="605" as="targetPoint" />
          </mxGeometry>
        </mxCell>
        <mxCell id="YhcMtgBvw5Yq8l-BeSyp-119" value="Get from Redis" style="text;html=1;strokeColor=none;fillColor=none;align=center;verticalAlign=middle;whiteSpace=wrap;rounded=0;" vertex="1" parent="1">
          <mxGeometry x="1980" y="575" width="120" height="20" as="geometry" />
        </mxCell>
        <mxCell id="YhcMtgBvw5Yq8l-BeSyp-120" value="" style="endArrow=classic;html=1;" edge="1" parent="1">
          <mxGeometry width="50" height="50" relative="1" as="geometry">
            <mxPoint x="2110" y="650" as="sourcePoint" />
            <mxPoint x="1780" y="650" as="targetPoint" />
          </mxGeometry>
        </mxCell>
        <mxCell id="YhcMtgBvw5Yq8l-BeSyp-121" value="return from Redis" style="text;html=1;strokeColor=none;fillColor=none;align=center;verticalAlign=middle;whiteSpace=wrap;rounded=0;" vertex="1" parent="1">
          <mxGeometry x="1980" y="630" width="120" height="20" as="geometry" />
        </mxCell>
        <mxCell id="YhcMtgBvw5Yq8l-BeSyp-122" value="" style="endArrow=classic;html=1;" edge="1" parent="1">
          <mxGeometry width="50" height="50" relative="1" as="geometry">
            <mxPoint x="1960" y="694" as="sourcePoint" />
            <mxPoint x="1780" y="694" as="targetPoint" />
          </mxGeometry>
        </mxCell>
        <mxCell id="YhcMtgBvw5Yq8l-BeSyp-123" value="oncache miss return from db" style="text;html=1;strokeColor=none;fillColor=none;align=center;verticalAlign=middle;whiteSpace=wrap;rounded=0;" vertex="1" parent="1">
          <mxGeometry x="1810" y="669" width="120" height="20" as="geometry" />
        </mxCell>
        <mxCell id="YhcMtgBvw5Yq8l-BeSyp-124" value="" style="endArrow=classic;html=1;dashed=1;" edge="1" parent="1">
          <mxGeometry width="50" height="50" relative="1" as="geometry">
            <mxPoint x="1790" y="736" as="sourcePoint" />
            <mxPoint x="2120" y="736" as="targetPoint" />
          </mxGeometry>
        </mxCell>
        <mxCell id="YhcMtgBvw5Yq8l-BeSyp-125" value="Async Call to redis" style="text;html=1;strokeColor=none;fillColor=none;align=center;verticalAlign=middle;whiteSpace=wrap;rounded=0;" vertex="1" parent="1">
          <mxGeometry x="1970" y="710" width="120" height="20" as="geometry" />
        </mxCell>
        <mxCell id="YhcMtgBvw5Yq8l-BeSyp-128" value="" style="endArrow=none;dashed=1;html=1;strokeWidth=1;" edge="1" parent="1">
          <mxGeometry width="50" height="50" relative="1" as="geometry">
            <mxPoint x="1100" y="479" as="sourcePoint" />
            <mxPoint x="2381" y="479" as="targetPoint" />
          </mxGeometry>
        </mxCell>
        <mxCell id="YhcMtgBvw5Yq8l-BeSyp-129" value="Write Call" style="text;html=1;strokeColor=none;fillColor=none;align=center;verticalAlign=middle;whiteSpace=wrap;rounded=0;" vertex="1" parent="1">
          <mxGeometry x="1010" y="240" width="100" height="20" as="geometry" />
        </mxCell>
        <mxCell id="YhcMtgBvw5Yq8l-BeSyp-130" value="Read Call" style="text;html=1;strokeColor=none;fillColor=none;align=center;verticalAlign=middle;whiteSpace=wrap;rounded=0;" vertex="1" parent="1">
          <mxGeometry x="1030" y="680" width="100" height="20" as="geometry" />
        </mxCell>
      </root>
    </mxGraphModel>
  </diagram>
</mxfile>
